<svg xmlns="http://www.w3.org/2000/svg" width="749" height="366" viewBox="0 0 749 366">
<g>
<path d="M 345.96,176.81 L 345.75,177.01 L 345.68,177.01 L 345.79,176.94 L 346.03,176.70 M 359.95,94.09 L 360.45,94.33 L 360.46,94.36 L 359.32,94.06 L 358.73,94.10 L 358.51,94.28 L 358.11,94.75 L 357.96,95.16 L 357.67,96.12 L 357.54,96.81 L 357.41,97.59 L 357.41,97.84 L 357.48,98.27 L 357.60,98.36 L 357.92,98.47 L 358.19,98.42 L 358.82,98.26 L 359.27,98.10 L 360.91,97.20 L 361.59,96.51 L 361.63,96.41 L 362.30,98.45 L 362.38,98.95 L 362.70,100.14 L 362.88,100.76 L 363.36,102.06 L 365.08,105.64 L 365.65,106.55 L 367.52,108.65 L 368.53,109.70 L 370.84,111.69 L 371.99,112.63 L 374.15,114.05 L 374.65,114.35 L 375.52,114.75 L 376.56,115.00 L 376.74,115.00 L 377.11,114.67 L 377.30,114.46 L 377.66,113.77 L 378.51,110.75 L 378.69,109.63 L 379.08,108.24 L 379.08,108.27 L 379.02,109.69 L 379.19,110.26 L 379.65,111.29 L 380.09,111.55 L 381.16,111.72 L 381.94,111.46 L 382.22,111.18 L 382.45,111.08 L 382.44,111.10 L 382.35,111.66 L 382.32,111.98 L 382.32,112.85 L 382.62,116.02 L 381.88,116.59 L 381.00,117.45 L 380.50,118.00 L 379.73,118.85 L 379.52,119.13 L 379.21,119.60 L 379.22,119.65 L 379.17,119.64 L 377.79,119.42 L 376.32,118.97 L 376.57,118.85 L 377.00,118.51 L 377.00,118.19 L 376.56,117.05 L 375.93,115.97 L 375.52,115.44 L 374.72,114.49 L 374.31,114.15 L 374.13,114.12 L 373.79,114.14 L 373.63,114.28 L 373.28,114.65 L 373.08,114.97 L 372.63,116.39 L 372.83,117.30 L 373.18,117.72 L 373.45,117.97 L 371.13,116.79 L 369.85,116.07 L 368.12,114.80 L 368.30,114.86 L 369.25,114.92 L 369.54,114.63 L 369.80,114.27 L 369.88,114.01 L 370.00,113.43 L 370.00,113.05 L 369.75,112.12 L 369.35,111.41 L 369.06,111.03 L 367.67,109.46 L 366.79,108.71 L 364.95,107.29 L 364.04,106.80 L 363.16,106.35 L 362.75,106.21 L 361.98,106.00 L 361.66,106.00 L 360.89,106.17 L 360.51,106.47 L 360.39,106.73 L 360.19,107.31 L 360.14,107.73 L 360.08,108.65 L 360.10,109.25 L 360.18,110.82 L 360.25,111.40 L 360.30,111.47 L 360.43,111.47 L 360.51,111.27 L 360.71,110.71 L 360.85,110.24 L 360.98,109.88 L 361.25,112.50 L 361.35,113.53 L 361.47,115.26 L 361.50,116.06 L 361.47,117.35 L 361.43,117.94 L 361.35,118.27 L 361.30,117.36 L 360.60,117.00 L 359.90,117.00 L 358.02,116.56 L 356.77,115.91 L 356.36,115.50 L 354.68,114.44 L 353.33,114.00 L 352.75,114.00 L 351.85,114.12 L 351.66,114.35 L 351.80,114.57 L 352.22,115.08 L 352.68,115.48 L 353.43,116.08 L 352.78,115.67 L 352.45,115.46 L 351.96,115.22 L 351.58,115.15 L 351.36,115.41 L 350.88,116.48 L 350.63,117.10 L 350.10,118.79 L 349.84,119.69 L 349.30,121.84 L 349.03,122.97 L 348.50,125.44 L 347.98,127.97 L 347.13,133.36 L 346.94,134.69 L 346.64,137.25 L 346.34,140.79 L 345.72,151.63 L 350.18,155.29 L 351.99,156.78 L 355.73,159.21 L 357.63,160.34 L 361.61,162.08 L 363.64,162.87 L 362.03,162.27 L 358.15,160.64 L 356.30,159.59 L 352.66,157.32 L 350.91,155.93 L 348.77,154.28 L 347.85,153.68 L 347.59,153.62 L 347.18,153.63 L 347.10,153.85 L 347.00,154.43 L 347.00,154.92 L 346.63,156.39 L 346.09,157.01 L 345.75,157.01 L 345.58,157.37 L 346.11,157.93 L 346.62,158.34 L 347.77,159.19 L 345.69,157.85 L 346.37,167.42 L 346.47,168.82 L 346.56,170.73 L 346.46,170.45 L 346.32,170.28 L 346.05,170.00 L 345.89,170.00 L 345.28,170.43 L 345.20,171.07 L 345.35,171.47 L 345.28,172.78 L 344.76,173.60 L 344.32,173.84 L 343.39,174.81 L 343.23,175.56 L 343.42,175.87 L 343.45,175.91 L 342.59,175.09 L 342.02,174.53 L 340.67,173.06 L 339.73,172.01 L 337.97,169.72 L 337.13,168.58 L 335.80,166.46 L 335.50,165.96 L 335.04,165.08 L 334.83,164.66 L 334.58,163.98 L 334.48,163.67 L 334.45,163.25 L 334.56,163.15 L 334.74,163.59 L 334.83,164.00 L 335.32,165.36 L 335.80,166.26 L 336.04,166.55 L 336.77,167.10 L 337.37,167.29 L 338.68,167.60 L 341.80,167.60 L 341.35,166.93 L 341.37,166.69 L 341.38,166.48 L 341.41,165.79 L 341.42,165.41 L 341.44,164.38 L 341.46,163.83 L 341.48,162.52 L 341.49,162.15 L 341.62,162.17 L 341.93,162.00 L 342.14,161.64 L 342.52,160.64 L 342.70,159.79 L 342.74,159.31 L 342.82,157.28 L 342.67,156.33 L 342.50,154.60 L 342.55,153.64 L 342.65,153.22 L 342.93,152.41 L 343.16,152.04 L 343.69,151.31 L 344.05,150.95 L 345.35,149.21 L 345.85,148.01 L 345.92,147.41 L 345.93,146.24 L 345.74,145.70 L 345.25,144.65 L 344.81,144.21 L 344.37,143.40 L 344.13,142.56 L 344.04,142.05 L 343.79,139.75 L 343.86,138.51 L 343.76,135.33 L 343.62,134.59 L 343.52,134.36 L 343.31,134.00 L 343.19,134.00 L 342.78,134.48 L 342.51,135.26 L 342.38,135.85 L 342.25,136.54 L 342.63,133.53 L 343.38,129.50 L 343.84,127.57 L 344.85,123.23 L 345.09,122.19 L 345.52,120.30 L 346.03,118.00 L 346.30,116.76 L 346.91,114.38 L 347.06,113.84 L 347.33,112.94 L 347.66,112.00 L 347.99,111.23 L 348.40,109.89 L 348.61,109.96 L 348.91,109.90 L 349.56,109.68 L 349.98,109.45 L 350.87,108.90 L 351.40,108.50 L 352.41,107.68 L 352.49,107.60 L 353.50,109.00 L 353.79,109.56 L 354.30,110.43 L 354.55,110.82 L 354.97,111.36 L 355.17,111.59 L 355.51,111.80 L 355.67,111.86 L 355.91,111.74 L 356.03,111.64 L 356.19,111.18 L 356.26,110.91 L 356.33,110.13 L 356.35,109.70 L 356.34,108.58 L 356.21,106.54 L 356.09,105.03 L 356.12,102.15 L 356.15,101.50 L 356.27,100.41 L 356.53,99.29 L 356.74,98.79 L 357.16,97.63 L 357.58,96.16 L 357.68,95.67 L 357.98,94.94 L 358.14,94.62 L 358.54,94.21 L 358.75,94.05 L 359.22,93.94 L 359.46,93.92 M 405.59,172.58 L 406.45,173.00 L 406.17,173.00 L 405.45,172.51 L 405.41,172.46 M 406.29,129.04 L 406.59,129.75 L 408.26,134.28 L 408.66,135.53 L 408.78,136.01 L 408.97,136.87 L 408.98,137.08 L 409.19,138.40 L 409.48,139.15 L 409.66,139.33 L 410.16,139.45 L 410.53,139.22 L 411.31,138.57 L 411.69,138.03 L 412.51,135.92 L 412.59,134.47 L 413.33,137.26 L 413.69,138.87 L 414.21,142.05 L 414.44,143.64 L 414.59,145.39 L 413.94,148.50 L 413.35,152.06 L 413.20,153.21 L 413.15,153.71 L 413.08,154.66 L 413.07,155.00 L 413.07,155.88 L 413.10,156.15 L 413.17,156.61 L 413.24,156.68 L 413.40,156.74 L 413.53,156.62 L 413.81,156.30 L 414.00,156.00 L 414.34,155.10 L 414.33,155.21 L 414.18,156.08 L 413.94,157.68 L 413.83,158.45 L 413.66,159.75 L 413.59,160.35 L 413.52,161.21 L 413.55,161.84 L 413.62,161.92 L 413.87,161.81 L 414.01,161.72 L 414.37,161.30 L 414.77,160.80 L 415.80,159.08 L 416.34,158.12 L 417.51,155.74 L 418.04,154.53 L 418.02,154.57 L 417.78,156.41 L 418.26,157.32 L 418.85,157.70 L 419.46,158.05 L 419.72,158.12 L 420.20,158.17 L 420.42,158.08 L 420.84,157.81 L 421.06,157.54 L 421.49,156.92 L 421.74,156.47 L 422.18,155.47 L 421.95,156.13 L 421.42,157.51 L 420.26,159.77 L 418.36,162.29 L 417.72,162.90 L 416.71,164.20 L 416.50,164.50 L 416.21,165.05 L 416.02,165.68 L 416.01,165.89 L 415.70,166.48 L 415.50,166.79 L 414.86,167.53 L 414.15,168.30 L 412.17,169.97 L 411.15,170.78 L 409.10,172.09 L 408.83,172.25 L 408.81,172.02 L 408.60,171.54 L 408.06,170.42 L 407.62,169.57 L 406.91,168.32 L 406.54,167.83 L 406.39,167.75 L 406.26,167.73 L 407.15,166.00 L 407.64,165.20 L 408.50,163.09 L 408.89,162.00 L 409.42,159.87 L 409.58,160.13 L 410.11,160.90 L 410.29,160.90 L 410.62,160.65 L 410.79,160.14 L 410.90,159.11 L 410.76,158.52 L 410.61,158.32 L 410.27,158.00 L 410.06,157.98 L 409.71,158.03 L 409.78,157.11 L 409.77,156.77 L 409.65,156.30 L 409.30,156.00 L 409.23,156.00 L 408.81,156.25 L 408.56,156.41 L 407.87,156.92 L 405.24,159.10 L 406.03,158.37 L 406.84,157.61 L 407.13,157.29 L 407.61,156.71 L 407.70,156.51 L 407.78,156.18 L 407.64,156.14 L 407.22,156.14 L 406.80,156.29 L 406.06,156.49 L 405.72,156.49 L 405.63,156.42 L 405.49,156.24 L 405.50,156.08 L 405.56,155.71 L 405.66,155.45 L 405.90,154.31 L 405.64,154.06 L 405.24,154.21 L 404.81,154.42 L 404.51,154.59 L 403.88,154.98 L 403.49,155.25 L 402.64,155.85 L 402.13,156.22 L 401.46,156.72 L 402.02,156.24 L 406.01,152.38 L 406.53,151.81 L 407.38,150.86 L 407.78,150.42 L 408.42,149.64 L 409.00,148.90 L 409.63,147.62 L 409.86,146.97 L 409.96,145.41 L 409.96,144.97 L 409.90,143.94 L 409.74,142.09 L 409.67,141.28 L 409.35,139.44 L 409.17,138.49 L 408.67,136.43 L 408.12,134.35 L 406.65,130.02 L 406.14,128.64 M 405.19,172.20 L 405.17,172.19 L 405.17,172.14 M 405.11,170.51 L 405.12,170.50 L 405.12,170.49 M 368.43,168.42 L 370.88,168.70 L 372.19,168.78 L 374.12,168.88 L 373.49,168.87 L 371.05,168.72 L 368.65,168.53 L 367.51,168.29 M 396.92,159.97 L 395.99,160.55 L 395.64,160.72 L 395.05,161.00 L 394.92,161.00 L 394.27,161.75 L 394.00,162.86 L 394.00,165.89 L 393.64,166.06 L 391.31,167.02 L 390.18,167.44 L 387.97,168.01 L 386.82,168.25 L 384.13,168.55 L 384.02,168.56 L 384.38,168.42 L 384.42,168.16 L 384.30,167.57 L 384.07,167.13 L 383.23,166.17 L 382.35,165.70 L 381.67,165.53 L 380.11,165.23 L 379.35,165.15 L 379.58,165.16 L 380.88,165.18 L 383.00,165.02 L 384.03,164.91 L 385.98,164.44 L 389.28,163.32 L 390.87,162.72 L 394.35,161.16 L 395.18,160.78 L 396.66,160.03 L 397.34,159.68 M 362.28,167.08 L 362.80,167.24 L 362.26,167.10 L 361.92,166.96 M 357.15,164.75 L 359.09,165.73 L 359.96,166.13 L 360.50,166.37 L 358.22,165.42 L 355.67,163.98 M 368.77,164.08 L 368.16,164.00 L 368.08,163.98 M 367.13,163.76 L 364.00,163.00 L 363.64,162.87 M 351.17,161.38 L 354.27,163.19 L 351.93,161.88 L 350.88,161.19 M 336.84,158.53 L 337.39,159.91 L 338.59,162.57 L 338.85,163.11 L 338.44,162.42 L 337.76,161.03 L 337.43,160.28 L 336.21,157.18 L 335.92,156.06 M 331.66,156.25 L 332.95,160.10 L 333.28,160.94 L 333.23,160.85 L 332.70,159.64 L 332.44,158.99 L 331.96,157.40 L 331.72,156.56 L 331.64,156.17 M 404.69,159.58 L 403.27,160.61 L 403.24,160.64 L 405.11,159.21 M 420.46,121.54 L 420.95,122.30 L 421.40,122.47 L 422.41,122.67 L 422.94,122.58 L 423.99,122.28 L 424.37,121.98 L 424.83,121.46 L 425.26,124.38 L 425.50,126.05 L 425.74,129.64 L 425.82,131.46 L 425.75,135.23 L 425.68,137.13 L 425.33,140.92 L 425.12,142.81 L 424.52,146.47 L 424.20,148.26 L 423.38,151.62 L 422.95,153.24 L 422.34,155.00 L 422.46,154.46 L 422.45,154.08 L 422.35,153.31 L 422.20,152.88 L 421.82,151.96 L 421.53,151.39 L 420.73,149.95 L 420.36,149.42 L 420.22,149.37 L 420.05,149.38 L 420.83,145.99 L 421.24,143.84 L 421.62,139.06 L 421.74,136.59 L 421.54,131.27 L 420.58,122.85 L 420.37,121.56 L 420.28,120.93 M 335.58,125.75 L 335.15,128.32 L 334.59,133.77 L 334.37,136.50 L 334.24,141.84 L 334.23,144.44 L 334.54,149.08 L 334.64,150.17 L 334.93,152.12 L 335.40,154.28 L 335.15,153.40 L 334.69,152.28 L 334.43,151.92 L 333.89,151.34 L 333.55,151.20 L 332.83,151.00 L 332.36,151.00 L 331.09,151.08 L 330.74,151.27 L 330.35,148.08 L 330.00,140.71 L 330.00,139.58 L 329.99,137.69 L 329.98,136.81 L 329.95,135.36 L 329.93,134.70 L 329.87,133.65 L 329.83,133.17 L 329.72,132.46 L 329.66,132.15 L 329.50,131.73 L 329.42,131.56 L 329.20,131.37 L 328.25,131.46 L 327.91,131.59 L 326.70,131.84 L 326.02,131.96 L 324.28,132.19 L 322.45,132.40 L 318.01,132.71 L 315.78,132.83 L 314.35,132.86 L 315.33,132.81 L 316.05,132.77 L 317.61,132.68 L 318.55,132.62 L 321.80,132.36 L 323.84,132.16 L 324.73,132.06 L 326.39,131.84 L 327.00,131.74 L 328.06,131.53 L 328.30,131.44 L 329.17,131.26 L 329.57,131.42 L 329.69,131.68 L 329.89,132.33 L 329.94,132.88 L 330.00,134.13 L 330.00,139.27 L 332.00,136.73 L 333.36,134.87 L 333.85,134.01 L 333.89,133.73 L 333.85,133.27 L 333.63,133.16 L 333.06,133.00 L 332.58,133.00 L 331.99,132.77 L 331.62,132.40 L 331.44,132.14 L 330.79,130.89 L 330.56,130.12 L 330.20,128.52 L 330.18,127.77 L 330.27,126.37 L 330.54,125.93 L 331.73,125.27 L 332.96,125.14 L 333.62,125.27 L 334.76,125.39 L 335.31,125.34 L 335.49,125.23 L 335.66,125.08 M 357.10,146.89 L 357.08,146.89 L 356.08,146.57 M 359.44,143.36 L 360.31,144.08 L 360.64,144.45 L 360.68,145.21 L 360.60,145.58 L 359.86,146.20 L 359.58,146.29 L 359.79,146.22 L 360.40,145.59 L 360.41,145.20 L 360.21,144.38 L 359.81,143.95 L 358.89,143.15 M 399.27,144.63 L 397.64,145.48 L 396.84,145.81 L 395.37,146.00 L 395.18,146.00 L 395.37,146.00 L 396.85,145.81 L 397.66,145.46 L 399.29,144.61 M 350.94,141.10 L 351.16,141.73 L 350.95,141.12 L 350.77,140.46 L 350.77,140.43 M 364.20,140.91 L 364.20,140.91 L 364.21,140.91 M 365.63,140.37 L 364.84,140.75 L 365.89,140.00 M 350.75,140.21 L 350.59,138.72 L 350.59,138.65 M 402.36,139.82 L 402.25,140.21 L 402.40,139.58 M 355.15,124.26 L 355.43,124.41 L 356.15,124.66 L 356.75,124.71 L 357.71,124.84 L 358.54,125.00 L 359.01,125.10 L 361.04,125.56 L 362.00,125.83 L 363.88,126.35 L 364.58,126.54 L 365.23,126.72 L 365.45,126.78 L 365.75,126.87 L 366.09,127.90 L 366.25,128.55 L 366.29,128.96 L 366.12,128.93 L 365.66,129.01 L 365.38,129.29 L 365.20,129.75 L 365.16,130.24 L 365.18,130.55 L 365.35,131.93 L 365.57,132.70 L 366.39,135.50 L 366.50,134.67 L 366.50,135.16 L 366.46,136.34 L 365.10,137.90 L 363.62,139.72 L 363.32,140.14 L 363.22,139.89 L 363.27,139.66 L 363.03,139.24 L 362.85,139.04 L 362.25,138.68 L 361.58,138.34 L 359.68,137.91 L 358.71,137.75 L 356.90,137.80 L 356.50,137.85 L 355.87,138.07 L 355.43,138.50 L 355.24,137.64 L 354.68,137.00 L 354.31,137.00 L 352.81,136.27 L 352.03,135.19 L 351.79,134.48 L 351.43,132.99 L 351.45,132.21 L 351.63,130.68 L 351.98,130.04 L 352.64,128.31 L 352.74,127.41 L 352.58,127.25 L 352.08,127.10 L 353.46,125.58 L 354.36,124.70 L 355.14,124.22 M 395.77,122.32 L 398.28,123.25 L 399.19,123.68 L 400.60,124.96 L 401.23,125.68 L 402.10,127.59 L 402.44,128.52 L 402.38,128.51 L 402.16,128.60 L 402.05,128.83 L 401.82,129.43 L 401.70,129.91 L 401.47,131.01 L 401.36,131.75 L 401.16,133.37 L 401.07,134.37 L 400.43,134.83 L 399.55,134.85 L 399.00,134.71 L 397.42,134.61 L 396.60,134.84 L 396.44,135.09 L 396.38,135.73 L 396.70,136.00 L 397.01,136.00 L 397.43,136.21 L 397.65,136.54 L 397.66,136.58 L 397.55,136.43 L 397.34,136.24 L 396.55,136.07 L 394.68,136.00 L 394.03,136.00 L 393.02,136.10 L 392.55,136.17 L 391.87,136.43 L 391.56,136.59 L 391.13,137.05 L 390.71,138.00 L 390.57,138.55 L 389.89,139.41 L 388.67,140.00 L 388.36,140.00 L 388.14,139.85 L 388.41,139.88 L 388.75,139.81 L 390.08,138.89 L 390.74,137.78 L 390.83,137.13 L 390.80,135.57 L 390.64,135.34 L 390.52,135.32 L 390.26,135.34 L 390.08,135.45 L 389.31,135.46 L 389.00,134.95 L 389.00,134.50 L 388.71,133.54 L 388.27,133.33 L 388.00,133.50 L 387.61,133.98 L 387.38,134.49 L 387.29,134.82 L 387.25,135.04 L 387.24,133.25 L 387.25,132.02 L 387.46,129.86 L 387.59,128.83 L 388.02,127.07 L 388.26,126.24 L 388.92,124.88 L 389.27,124.26 L 390.15,123.31 L 390.61,122.89 L 391.70,122.36 L 392.28,122.15 L 393.58,122.03 L 394.26,122.02 M 402.81,135.97 L 402.72,137.14 L 402.49,138.97 L 402.45,139.22 L 402.54,138.44 L 402.75,136.20 L 402.81,135.06 M 350.50,135.01 L 350.59,138.64 L 350.50,135.17 L 350.50,134.41 L 350.50,134.41 M 397.91,137.97 L 397.89,138.12 L 397.89,137.88 M 357.94,128.00 L 357.17,128.24 L 356.82,128.39 L 356.32,128.86 L 356.11,129.12 L 355.88,129.76 L 355.80,130.08 L 355.83,130.79 L 355.92,131.51 L 356.84,132.81 L 357.12,133.10 L 357.86,133.54 L 359.21,133.92 L 359.41,133.94 L 360.04,133.38 L 360.36,133.03 L 361.01,131.98 L 361.36,131.33 L 361.63,130.26 L 361.69,129.77 L 361.40,129.01 L 361.18,128.68 L 360.33,128.26 L 358.44,128.00 M 350.64,130.91 L 350.52,133.09 L 350.53,132.52 L 350.59,131.49 L 350.65,130.51 L 350.68,130.40 M 401.59,117.05 L 402.17,117.16 L 402.62,117.35 L 403.63,117.80 L 404.29,118.16 L 405.48,118.76 L 405.91,118.91 L 405.94,118.83 L 405.93,118.78 L 406.23,119.22 L 407.03,120.52 L 408.48,123.33 L 409.19,124.76 L 410.43,127.78 L 411.63,130.84 L 412.21,133.05 L 412.00,132.41 L 411.61,131.99 L 410.74,131.33 L 410.17,131.37 L 409.21,131.19 L 408.81,130.78 L 408.74,130.43 L 408.66,129.61 L 408.75,129.04 L 408.99,127.80 L 409.23,127.00 L 409.42,126.16 L 409.37,126.04 L 409.26,126.24 L 408.52,126.33 L 407.76,125.90 L 407.35,125.49 L 406.40,124.62 L 405.89,124.24 L 405.69,124.15 L 405.35,124.03 L 405.23,124.08 L 405.05,124.23 L 405.02,124.41 L 404.99,124.83 L 405.04,125.14 L 405.18,125.83 L 405.31,126.27 L 405.62,127.23 L 405.82,127.78 L 404.18,124.20 L 403.76,123.35 L 402.94,121.93 L 401.76,120.32 L 401.49,120.02 L 400.68,119.42 L 400.25,119.13 L 399.21,118.58 L 397.05,117.87 L 397.09,117.88 L 397.69,118.04 L 398.81,118.34 L 399.26,118.45 L 400.08,118.65 L 400.40,118.71 L 400.96,118.82 L 401.16,118.83 L 401.73,118.81 L 401.77,118.67 L 401.69,118.30 L 401.50,118.00 L 401.22,117.27 L 401.36,117.04 M 323.07,114.45 L 322.80,115.21 L 322.79,115.44 L 322.86,115.81 L 323.02,115.89 L 323.42,116.00 L 323.75,116.00 L 324.44,116.06 L 324.69,116.18 L 324.71,116.29 L 324.68,116.55 L 324.56,116.75 L 324.26,117.19 L 324.01,117.49 L 322.87,118.38 L 322.12,118.57 L 321.87,118.42 L 321.20,118.45 L 320.50,118.72 L 320.05,118.96 L 318.05,120.16 L 316.95,121.04 L 315.03,122.66 L 314.20,123.51 L 313.98,123.85 L 313.68,124.50 L 313.70,124.78 L 313.85,125.32 L 314.08,125.60 L 314.55,126.29 L 314.67,126.67 L 314.63,126.82 L 314.48,127.12 L 314.29,127.25 L 313.86,127.50 L 313.53,127.63 L 312.76,127.98 L 312.48,128.20 L 312.45,128.31 L 312.47,128.54 L 312.59,128.67 L 312.90,128.94 L 313.16,129.10 L 313.72,129.57 L 313.86,129.90 L 313.81,130.08 L 313.63,130.47 L 313.41,130.71 L 312.89,131.21 L 312.50,131.53 L 311.60,132.40 L 311.55,132.59 L 311.61,132.66 L 311.80,132.78 L 312.01,132.82 L 312.48,132.88 L 312.72,132.88 L 311.69,132.90 L 310.77,132.89 L 309.24,132.82 L 307.62,132.62 L 307.15,132.50 L 306.41,132.19 L 306.08,132.02 L 305.96,131.91 L 306.40,131.77 L 306.66,131.41 L 307.17,130.49 L 307.37,129.75 L 307.84,127.77 L 307.95,126.93 L 307.89,126.71 L 307.69,126.39 L 307.46,126.39 L 307.28,126.42 L 307.56,126.25 L 310.05,125.07 L 311.08,124.63 L 313.10,123.50 L 314.10,122.90 L 316.02,121.50 L 316.96,120.77 L 318.72,119.17 L 319.57,118.35 L 321.12,116.62 L 321.86,115.74 L 323.13,113.94 L 323.70,113.08 M 393.53,126.41 L 393.08,126.59 L 392.43,127.30 L 392.00,128.80 L 392.00,129.70 L 392.54,130.97 L 392.87,131.50 L 393.84,131.98 L 394.35,132.12 L 395.46,131.74 L 396.00,131.43 L 396.94,130.11 L 397.32,129.40 L 397.41,128.36 L 396.49,126.99 L 396.01,126.60 L 394.98,126.27 L 394.47,126.18 M 328.97,126.27 L 328.33,126.68 L 328.06,126.80 L 327.55,127.00 L 327.38,127.00 L 326.24,127.41 L 325.52,128.02 L 325.30,128.40 L 324.13,129.38 L 322.94,129.85 L 322.23,129.98 L 320.77,130.16 L 320.04,130.12 L 318.61,129.96 L 318.00,129.73 L 315.24,128.83 L 315.50,128.83 L 316.69,128.74 L 317.34,128.69 L 318.93,128.50 L 321.57,128.13 L 322.80,127.94 L 324.84,127.51 L 325.80,127.28 L 327.38,126.75 L 328.12,126.46 L 329.36,125.78 L 330.91,124.58 M 318.11,125.43 L 317.63,125.76 L 318.06,125.40 L 318.72,124.91 L 319.36,124.37 M 331.00,124.50 L 331.00,124.50 L 331.00,124.50 M 322.24,121.97 L 321.09,122.93 L 322.24,121.88 L 322.93,121.18 L 323.75,120.32 M 335.02,122.04 L 335.21,122.09 L 335.45,122.34 L 334.99,122.04 L 334.54,122.10 L 333.72,122.34 L 333.77,122.31 L 334.34,122.08 L 334.60,122.00 M 383.30,120.30 L 381.04,119.94 L 382.48,119.52 L 383.00,118.69 L 383.00,118.40 M 361.09,119.19 L 360.70,119.66 L 360.48,119.84 L 359.87,119.92 L 359.54,119.91 L 359.17,119.77 L 359.32,119.81 L 360.24,119.87 L 360.57,119.65 L 361.14,119.06 M 431.31,108.38 L 431.73,108.78 L 432.00,109.23 L 432.00,109.44 L 432.45,109.77 L 433.52,110.00 L 433.72,110.00 L 434.42,110.10 L 434.80,110.16 L 435.76,110.37 L 439.02,111.24 L 439.97,111.54 L 440.99,112.00 L 439.66,112.37 L 439.18,112.91 L 439.25,113.25 L 439.10,113.79 L 438.75,114.11 L 438.46,114.25 L 437.79,114.50 L 437.35,114.59 L 436.41,114.76 L 435.84,114.81 L 433.03,115.45 L 432.34,115.80 L 432.09,116.00 L 431.67,116.42 L 431.58,116.64 L 431.40,117.22 L 431.44,117.40 L 431.62,117.71 L 431.64,117.71 L 431.59,117.71 L 424.37,118.26 L 424.59,119.76 L 424.47,119.47 L 423.63,119.00 L 423.00,119.00 L 422.00,118.85 L 421.54,118.57 L 421.39,118.31 L 421.14,117.69 L 421.08,117.22 L 421.00,116.16 L 421.00,115.44 L 420.93,114.01 L 420.81,113.27 L 420.72,113.01 L 420.52,112.59 L 420.40,112.50 L 420.33,112.48 L 420.34,112.46 L 420.54,112.28 L 421.09,112.15 L 421.39,112.13 L 422.14,112.30 L 423.52,112.83 L 424.23,113.15 L 426.28,113.65 L 429.30,113.99 L 432.50,113.98 L 428.00,111.34 L 426.29,110.33 L 425.09,109.52 L 426.46,110.30 L 427.34,110.63 L 429.03,111.14 L 429.72,111.17 L 430.98,111.10 L 431.38,110.84 L 432.00,110.17 L 432.00,109.61 L 431.73,109.02 L 431.31,108.53 L 431.00,108.25 L 429.52,107.12 L 431.00,108.14 M 358.38,119.47 L 358.27,119.42 L 358.10,119.31 M 324.70,119.30 L 324.62,119.38 L 324.72,119.27 M 392.68,116.42 L 393.45,116.73 L 394.45,117.11 L 393.96,116.95 L 393.27,116.70 L 391.76,116.01 L 391.45,115.83 M 401.05,114.13 L 401.81,114.40 L 402.97,115.11 L 403.53,115.52 L 404.29,116.40 L 402.74,114.99 L 401.01,114.12 M 442.96,113.47 L 443.03,114.11 L 442.99,114.43 L 442.44,115.05 L 442.09,115.35 L 441.45,115.67 L 442.56,114.72 L 442.97,113.86 L 442.94,113.45 L 442.94,113.44 M 389.52,109.47 L 391.25,110.76 L 392.15,111.35 L 394.30,112.27 L 398.28,113.39 L 399.40,113.64 L 399.47,113.66 L 397.49,113.24 L 396.43,113.24 L 394.38,113.42 L 393.57,113.79 L 391.56,114.27 L 390.36,114.19 L 389.93,113.99 L 389.21,113.50 L 389.13,113.16 L 389.11,112.80 L 389.19,112.60 L 389.41,112.19 L 389.62,111.98 L 390.04,111.34 L 390.12,110.89 L 390.06,110.63 L 389.88,110.08 L 389.68,109.76 L 389.38,109.32 M 338.62,86.98 L 337.86,87.92 L 337.70,88.35 L 337.52,89.20 L 337.66,89.57 L 337.46,91.16 L 336.74,92.67 L 336.13,93.59 L 334.73,95.52 L 333.83,96.58 L 331.88,98.77 L 330.73,99.90 L 328.98,102.03 L 328.66,102.61 L 328.60,102.83 L 328.55,103.22 L 328.65,103.31 L 329.30,103.86 L 329.61,103.92 L 330.23,103.91 L 330.56,103.67 L 331.23,103.04 L 331.62,102.48 L 332.42,101.17 L 332.90,100.25 L 333.64,99.14 L 333.19,99.88 L 332.44,101.22 L 331.27,104.11 L 329.92,108.92 L 329.61,110.38 L 328.52,113.04 L 328.51,112.77 L 328.30,112.44 L 327.76,111.76 L 327.31,111.31 L 326.24,110.33 L 325.72,110.07 L 325.50,110.16 L 325.06,110.50 L 324.87,110.81 L 325.09,110.35 L 325.65,108.61 L 326.00,106.15 L 326.00,105.63 L 326.45,104.43 L 327.55,102.96 L 327.97,102.61 L 328.51,101.72 L 328.65,100.54 L 328.53,100.23 L 328.71,99.06 L 329.45,97.09 L 329.73,96.56 L 329.99,95.71 L 330.05,95.28 L 329.73,94.38 L 329.49,93.90 L 329.03,93.35 L 329.85,94.20 L 332.33,92.35 L 333.53,91.39 L 333.99,90.92 L 334.05,90.75 L 334.06,90.44 L 333.91,90.33 L 333.50,90.11 L 333.15,90.00 L 332.75,89.80 L 333.38,89.73 L 334.03,89.57 L 335.72,88.70 L 336.19,88.44 L 337.26,87.76 L 337.83,87.39 L 338.98,86.61 M 383.53,110.93 L 383.92,111.09 L 384.76,111.50 L 385.27,111.84 L 386.37,112.61 L 386.51,112.73 L 385.73,112.20 L 385.17,111.85 L 384.21,111.33 L 383.76,111.10 L 383.10,110.89 M 383.07,110.89 L 382.78,110.93 L 382.91,110.88 M 362.30,109.11 L 362.70,109.56 L 363.62,110.64 L 363.70,110.75 L 362.05,108.95 M 383.25,104.33 L 383.95,104.62 L 384.23,105.00 L 384.74,105.91 L 384.87,106.58 L 385.42,108.12 L 385.95,108.95 L 386.22,109.12 L 386.67,109.44 L 386.79,109.57 L 386.95,109.81 L 386.94,109.89 L 386.66,110.17 L 386.25,110.19 L 385.30,110.14 L 384.69,109.99 L 383.40,109.60 L 382.75,109.27 L 381.37,108.49 L 380.80,108.02 L 380.68,107.77 L 380.54,107.27 L 380.61,106.97 L 380.83,106.31 L 381.06,105.88 L 382.12,104.61 L 382.88,104.26 M 421.64,102.26 L 422.34,102.74 L 422.77,103.17 L 423.24,103.78 L 423.36,104.16 L 423.33,104.34 L 423.19,104.71 L 423.01,104.90 L 422.60,105.31 L 422.28,105.54 L 421.54,106.25 L 421.42,106.70 L 421.58,106.95 L 421.88,107.32 L 421.52,107.06 L 419.43,105.36 L 419.46,105.36 L 419.57,105.14 L 419.75,104.56 L 419.82,104.08 L 420.19,102.71 L 420.55,102.18 L 420.79,102.10 L 421.31,102.08 M 350.69,106.12 L 351.16,106.30 L 351.24,106.36 L 350.32,106.29 L 349.53,106.57 L 349.19,106.85 L 348.86,107.19 L 348.92,106.67 L 349.47,106.12 L 349.80,105.94 M 383.78,102.47 L 384.37,103.05 L 386.37,105.59 L 386.60,105.94 L 385.58,104.69 L 385.02,104.00 L 383.78,102.46 M 381.00,103.86 L 380.24,105.11 L 380.43,104.69 L 380.84,103.88 L 381.72,102.74 L 382.18,102.47 M 412.24,91.45 L 413.45,91.71 L 414.18,92.04 L 415.31,92.74 L 415.86,93.33 L 416.05,93.71 L 416.38,94.56 L 416.47,95.12 L 416.62,96.34 L 416.65,97.12 L 416.67,99.14 L 416.58,100.03 L 416.47,100.27 L 416.21,100.64 L 415.99,100.67 L 415.50,100.64 L 415.16,100.51 L 414.75,100.51 L 414.74,100.75 L 414.82,100.90 L 414.27,100.19 L 413.43,98.87 L 413.01,98.06 L 411.95,96.28 L 410.95,94.83 L 411.20,95.00 L 411.34,95.00 L 411.63,94.59 L 411.40,93.98 L 411.07,93.59 L 410.47,92.34 L 410.62,91.74 L 410.93,91.58 L 411.69,91.38 M 335.54,96.32 L 335.63,96.20 L 335.77,96.03 M 419.54,66.61 L 420.03,66.89 L 420.94,67.48 L 421.30,67.81 L 422.38,68.69 L 423.03,69.08 L 423.34,69.18 L 424.48,69.32 L 424.97,69.02 L 426.29,68.57 L 427.16,68.56 L 427.45,68.73 L 427.66,68.75 L 428.88,70.68 L 429.03,70.98 L 429.31,71.96 L 429.45,72.50 L 429.67,73.82 L 429.84,76.13 L 429.71,75.78 L 429.39,75.56 L 428.59,75.23 L 428.00,75.27 L 426.55,75.88 L 426.00,76.68 L 426.00,77.21 L 426.01,78.08 L 426.06,78.36 L 426.20,78.79 L 426.36,78.87 L 426.75,78.94 L 427.08,78.86 L 427.85,78.61 L 428.42,78.39 L 429.65,77.51 L 429.90,76.98 L 430.00,78.28 L 430.00,79.39 L 429.88,81.18 L 429.79,82.02 L 429.42,83.46 L 429.19,84.17 L 428.49,85.56 L 426.97,87.88 L 426.14,89.03 L 423.81,91.32 L 423.33,91.75 L 423.75,91.05 L 423.85,90.61 L 424.00,89.65 L 424.00,86.06 L 421.15,87.99 L 422.74,86.54 L 423.48,85.77 L 424.57,84.07 L 425.05,83.19 L 425.63,81.22 L 425.99,77.90 L 425.99,76.85 L 425.41,74.58 L 425.04,73.44 L 423.85,71.22 L 423.20,70.14 L 421.61,68.29 L 419.26,66.50 M 400.39,74.49 L 400.09,75.43 L 400.16,77.02 L 400.31,77.79 L 401.32,79.20 L 403.83,81.25 L 403.77,81.21 L 402.82,80.69 L 402.41,80.61 L 401.62,80.55 L 401.19,80.67 L 400.29,81.00 L 399.72,81.30 L 397.16,82.63 L 400.65,84.51 L 402.47,85.42 L 403.35,85.75 L 403.66,85.79 L 404.22,85.77 L 404.44,85.63 L 404.83,85.27 L 405.02,84.97 L 405.49,84.31 L 405.74,84.09 L 405.84,84.10 L 406.05,84.20 L 406.15,84.38 L 406.37,84.80 L 406.50,85.13 L 406.84,86.50 L 406.90,87.35 L 406.82,87.60 L 406.86,88.27 L 407.05,88.90 L 407.21,89.27 L 408.00,90.91 L 408.46,91.68 L 406.50,89.27 L 406.13,88.82 L 404.87,87.72 L 404.17,87.14 L 402.39,85.88 L 396.23,82.27 L 394.95,81.63 L 392.46,80.58 L 391.83,80.33 L 393.44,80.73 L 393.96,80.80 L 394.81,80.86 L 394.94,80.74 L 395.01,80.39 L 394.77,80.05 L 394.10,79.25 L 393.51,78.66 L 392.85,77.85 L 392.76,77.46 L 392.92,77.31 L 393.40,77.04 L 393.88,76.91 L 395.01,76.67 L 395.86,76.52 L 397.83,76.06 L 398.85,75.63 L 399.26,75.33 L 400.02,74.64 L 400.35,74.17 L 400.89,73.31 M 340.52,91.20 L 342.44,89.53 L 343.29,88.92 M 415.69,90.88 L 415.65,90.87 L 416.06,90.75 M 412.90,89.84 L 413.58,90.40 L 414.90,90.80 L 415.31,90.86 L 415.00,90.84 L 413.70,90.56 L 413.09,90.10 L 411.87,88.96 L 411.59,88.58 M 351.92,69.26 L 352.80,70.56 L 354.12,73.13 L 354.40,73.74 L 354.77,74.85 L 355.00,76.28 L 355.00,76.58 L 355.23,77.00 L 355.39,77.18 L 356.03,77.39 L 356.42,77.47 L 357.62,77.49 L 357.92,77.47 L 357.84,77.53 L 357.59,77.85 L 357.64,78.11 L 357.84,78.70 L 358.06,79.12 L 358.81,80.12 L 359.33,80.42 L 360.43,80.91 L 361.00,80.94 L 361.84,80.90 L 359.36,81.61 L 358.01,82.02 L 355.52,82.84 L 353.10,83.68 L 348.99,85.51 L 347.04,86.45 L 344.64,87.98 L 347.19,86.29 L 348.75,85.51 L 350.79,84.46 L 351.98,83.81 L 352.46,83.53 L 353.32,83.00 L 353.59,82.82 L 354.00,82.49 L 354.00,82.43 L 353.62,82.19 L 353.03,82.12 L 352.60,82.13 L 350.58,82.25 L 349.34,82.42 L 346.79,82.85 L 345.63,83.12 L 344.52,83.41 L 344.06,83.56 L 343.77,83.66 L 344.57,83.28 L 345.44,83.00 L 345.60,83.00 L 346.09,82.81 L 346.35,82.68 L 346.97,82.28 L 348.94,80.56 L 349.44,80.03 L 350.10,79.18 L 350.38,78.77 L 350.65,78.01 L 350.74,77.62 L 350.65,76.74 L 350.17,75.06 L 350.05,74.72 L 350.20,75.03 L 350.66,75.81 L 351.01,76.14 L 351.77,76.73 L 352.25,76.91 L 353.02,77.16 L 353.34,77.21 L 353.91,77.25 L 354.12,77.19 L 354.49,77.01 L 354.60,76.84 L 354.77,76.44 L 354.78,76.16 L 354.75,75.54 L 354.66,75.15 L 354.43,74.31 L 354.24,73.81 L 353.80,72.76 L 353.51,72.15 L 352.88,70.87 L 352.49,70.15 L 351.72,68.99 M 327.58,86.26 L 328.73,87.44 L 327.91,86.74 L 327.20,85.74 L 326.50,84.54 M 322.35,85.83 L 322.11,85.50 L 322.01,85.25 M 325.98,83.34 L 326.37,84.33 L 325.95,83.61 L 325.57,82.38 L 325.39,81.56 M 320.70,79.01 L 320.81,80.35 L 321.18,82.99 L 321.39,83.74 L 321.22,83.32 L 320.87,82.17 L 320.66,79.40 L 320.64,78.65 L 320.68,77.60 M 404.47,81.70 L 404.73,81.90 L 404.16,81.49 M 325.12,80.16 L 325.22,80.79 L 325.00,79.83 L 325.00,78.84 M 366.50,78.32 L 366.62,78.81 L 366.42,79.13 L 366.30,79.79 L 363.65,80.42 L 362.41,80.74 L 362.59,80.65 L 363.44,80.03 L 363.64,79.50 L 364.47,78.44 L 365.27,78.00 L 365.67,78.00 M 376.72,74.21 L 378.25,74.27 L 380.85,74.39 L 382.18,74.47 L 384.80,74.66 L 386.09,74.75 L 388.43,74.96 L 389.55,75.07 L 391.34,75.28 L 393.12,75.56 L 393.68,75.70 L 394.50,75.79 L 394.87,75.80 L 395.23,75.65 L 394.90,75.82 L 394.56,75.84 L 393.82,75.82 L 393.33,75.72 L 391.78,75.55 L 391.29,75.63 L 391.43,75.76 L 391.50,76.64 L 391.23,77.56 L 390.97,78.06 L 390.59,78.94 L 390.52,79.40 L 390.58,79.57 L 390.77,79.89 L 390.96,80.01 L 390.97,80.01 L 388.79,79.32 L 387.57,78.97 L 385.13,78.48 L 383.90,78.27 L 381.38,78.06 L 380.11,77.98 L 377.45,78.04 L 376.10,78.11 L 373.25,78.44 L 371.79,78.64 L 368.68,79.23 L 367.52,79.51 L 368.26,78.97 L 368.55,78.25 L 368.48,77.89 L 368.20,77.22 L 367.86,77.00 L 367.07,76.68 L 366.50,76.75 L 365.43,76.86 L 364.51,76.93 L 363.99,76.96 L 362.31,77.06 L 364.68,76.57 L 365.41,76.39 L 366.72,75.99 L 368.27,75.36 L 368.84,75.07 L 370.14,74.65 L 370.84,74.48 L 372.60,74.28 L 373.56,74.20 L 376.04,74.20 M 325.56,66.19 L 325.41,66.72 L 325.31,67.24 L 325.36,67.47 L 325.51,67.91 L 325.69,68.09 L 326.39,68.45 L 327.01,68.48 L 327.41,68.40 L 328.28,68.16 L 328.81,67.94 L 329.93,67.43 L 330.29,67.24 L 328.92,68.33 L 328.14,69.05 L 326.91,70.79 L 326.36,71.69 L 325.60,73.70 L 325.28,74.72 L 325.00,76.88 L 324.93,77.88 L 324.53,74.91 L 323.75,73.18 L 323.12,72.61 L 322.07,71.72 L 321.70,71.51 L 321.75,71.39 L 322.21,70.43 L 323.57,68.40 L 324.31,67.39 L 326.03,65.51 L 326.25,65.33 M 346.27,68.27 L 347.62,69.52 L 349.58,71.53 L 350.00,72.04 L 350.12,72.23 L 350.28,72.54 L 350.25,72.60 L 349.91,73.78 L 350.00,74.58 L 349.88,74.22 L 349.59,72.90 L 349.55,72.62 L 349.55,72.24 L 349.70,72.00 L 349.78,72.00 L 349.71,71.80 L 349.64,71.67 L 349.30,71.24 L 347.51,69.42 L 346.27,68.27 L 346.18,68.21 M 408.81,65.80 L 407.33,66.45 L 406.60,66.81 L 405.26,67.72 L 404.61,68.20 L 403.44,69.34 L 403.03,69.89 L 403.55,69.11 L 405.41,67.38 L 406.51,66.77 L 408.82,65.74 L 409.41,65.62 M 423.96,64.83 L 424.44,65.11 L 425.59,66.18 L 426.06,66.65 L 424.16,64.99 L 423.61,64.67 M 343.55,66.55 L 343.56,66.56 L 343.52,66.54 M 342.19,65.83 L 342.39,65.93 L 340.57,65.44 M 334.29,65.66 L 335.13,65.34 L 335.42,65.30 M 344.24,62.36 L 346.13,63.20 L 346.59,63.45 L 347.55,64.20 L 348.04,64.62 L 348.96,65.55 L 348.63,65.26 L 347.08,63.99 L 346.23,63.48 L 344.50,62.52 L 343.58,62.16 L 343.33,62.08 M 338.30,65.00 L 336.93,65.11 L 338.02,64.96 M 423.58,64.66 L 423.38,64.59 L 422.97,64.52 L 422.85,64.59 L 423.10,64.44 M 328.66,63.31 L 328.74,63.25 L 329.23,62.93 L 330.43,62.40 L 331.06,62.16 L 331.28,62.10 Z" fill="rgba(48,154,37,1)"/>
<path d="M 346.32,170.28 L 346.46,170.45 L 346.67,171.03 L 347.00,173.50 L 347.00,174.38 L 346.66,175.70 L 346.44,176.28 L 345.79,176.94 L 345.44,177.17 L 344.63,177.04 L 344.22,176.87 L 343.42,175.87 L 343.23,175.56 L 343.39,174.81 L 344.32,173.84 L 344.76,173.60 L 345.28,172.78 L 345.35,171.47 L 345.20,171.07 L 345.28,170.43 L 345.89,170.00 L 346.05,170.00 M 406.39,167.75 L 406.54,167.83 L 406.91,168.32 L 407.62,169.57 L 408.06,170.42 L 408.60,171.54 L 408.81,172.02 L 408.86,172.56 L 408.82,172.78 L 408.35,172.94 L 407.00,173.00 L 406.45,173.00 L 405.59,172.58 L 405.22,172.33 L 405.00,171.58 L 405.00,171.19 L 405.18,170.10 L 405.62,168.54 L 405.75,168.21 L 405.99,167.84 L 406.11,167.71 M 337.43,160.28 L 337.76,161.03 L 338.44,162.42 L 339.45,164.15 L 340.01,164.96 L 338.98,163.68 L 338.21,163.00 L 337.99,163.00 L 337.48,163.68 L 337.32,164.67 L 337.35,165.30 L 337.44,166.06 L 337.54,166.35 L 337.78,166.88 L 337.96,167.06 L 338.38,167.38 L 338.65,167.47 L 339.26,167.60 L 338.68,167.60 L 337.37,167.29 L 336.77,167.10 L 336.04,166.55 L 335.80,166.26 L 335.36,165.43 L 335.40,165.40 L 335.95,164.69 L 336.30,164.00 L 336.81,162.35 L 336.95,161.07 L 336.93,160.37 L 336.73,158.50 M 340.79,167.54 L 341.20,167.41 L 341.24,167.26 L 341.22,166.88 L 341.05,166.57 L 340.79,166.11 L 341.80,167.60 L 339.64,167.60 M 394.66,161.36 L 394.87,161.44 L 395.37,161.61 L 395.73,161.70 L 396.52,161.90 L 397.00,162.00 L 398.86,162.40 L 399.53,162.56 L 400.10,162.70 L 398.95,163.43 L 394.00,166.12 L 394.00,162.86 L 394.27,161.75 L 394.63,161.34 M 330.62,152.49 L 330.81,153.23 L 331.01,154.03 L 331.16,154.53 L 331.47,155.60 L 331.66,156.25 L 333.05,160.14 L 333.50,161.12 L 333.69,161.46 L 334.06,162.03 L 334.19,162.11 L 334.86,162.73 L 335.11,163.19 L 335.09,163.36 L 335.03,164.18 L 335.02,164.52 L 334.83,164.00 L 334.74,163.59 L 334.41,162.79 L 333.86,162.00 L 333.77,161.93 L 333.49,161.39 L 333.33,161.07 L 332.95,160.10 L 331.66,156.25 L 331.47,155.59 L 331.15,154.52 L 331.01,154.02 L 330.80,153.22 L 330.62,152.48 L 330.59,151.67 M 341.93,162.00 L 341.62,162.17 L 341.48,162.14 L 341.28,161.45 L 341.20,160.98 L 341.10,159.29 L 341.08,158.80 L 341.06,157.61 L 341.05,156.98 L 341.04,155.50 L 341.03,153.64 L 341.04,155.17 L 341.05,155.97 L 341.08,157.47 L 341.10,158.10 L 341.14,159.28 L 341.17,159.75 L 341.24,160.61 L 341.28,160.93 L 341.38,161.50 L 341.43,161.69 L 341.55,161.98 L 341.62,162.03 L 341.94,161.99 M 402.79,160.98 L 401.64,161.72 L 401.80,161.19 L 401.43,161.23 L 401.00,161.50 L 400.20,161.82 L 400.16,161.56 L 400.38,161.20 L 401.23,160.56 L 401.98,160.44 L 402.33,160.57 L 403.02,160.55 L 403.61,160.33 L 403.78,160.22 M 395.86,160.61 L 395.49,160.80 L 394.83,161.11 L 394.82,161.11 L 394.92,161.00 L 395.05,161.00 L 395.64,160.72 L 395.88,160.60 M 407.78,156.18 L 407.70,156.51 L 407.61,156.71 L 407.13,157.29 L 406.84,157.61 L 406.08,158.33 L 407.08,157.17 L 407.48,156.61 L 407.54,156.44 L 407.57,156.18 L 407.45,156.16 L 407.11,156.18 L 407.22,156.14 L 407.64,156.14 M 372.04,150.62 L 371.14,151.60 L 370.69,152.14 L 370.55,152.32 L 370.35,152.65 L 370.34,152.71 L 370.40,152.78 L 370.55,152.70 L 371.70,152.56 L 372.62,152.77 L 373.01,153.01 L 374.36,153.37 L 375.25,153.21 L 375.58,152.93 L 376.05,152.80 L 375.47,153.09 L 374.10,154.12 L 373.43,154.66 L 372.38,155.37 L 371.89,155.67 L 371.13,155.90 L 370.77,155.96 L 370.19,155.73 L 369.92,155.56 L 369.43,154.89 L 369.33,154.72 L 369.39,154.20 L 369.46,153.92 L 369.83,153.23 L 370.25,152.51 L 371.71,150.87 L 372.50,150.07 L 372.78,149.84 M 381.87,150.35 L 383.13,151.77 L 383.40,152.12 L 383.77,152.77 L 384.00,153.63 L 384.00,154.21 L 383.62,154.99 L 383.37,155.32 L 382.57,155.56 L 382.13,155.62 L 381.02,155.32 L 380.37,154.95 L 380.61,154.94 L 380.68,154.76 L 380.67,154.27 L 380.40,153.85 L 380.19,153.19 L 380.49,153.18 L 380.85,153.40 L 381.98,153.71 L 382.78,153.63 L 383.08,153.45 L 383.36,152.98 L 383.31,152.51 L 383.17,152.22 L 382.82,151.58 L 382.54,151.20 L 381.90,150.41 L 381.72,150.23 M 333.55,151.20 L 333.89,151.34 L 334.43,151.92 L 334.69,152.28 L 335.15,153.40 L 335.25,153.74 L 334.84,152.96 L 334.51,152.50 L 333.81,151.66 L 333.44,151.41 L 332.69,151.00 L 332.34,151.00 L 332.36,151.00 L 332.83,151.00 M 377.57,152.99 L 377.91,153.39 L 377.53,153.14 L 377.12,152.89 L 376.46,152.76 L 376.21,152.75 L 376.76,152.60 M 330.59,151.67 L 330.59,151.66 L 330.61,151.50 M 330.63,151.34 L 330.63,151.33 L 330.89,151.19 M 331.08,151.09 L 331.09,151.08 L 331.86,151.03 M 345.35,149.21 L 345.34,149.22 L 345.37,149.15 M 373.92,148.94 L 374.25,148.69 L 374.58,148.45 M 374.61,148.44 L 374.68,148.39 L 374.75,148.35 M 377.27,147.59 L 376.92,147.62 L 375.60,147.90 L 376.58,147.56 L 376.84,147.51 M 355.58,139.20 L 355.55,139.90 L 356.18,141.15 L 358.00,142.67 L 358.81,143.07 L 359.81,143.95 L 360.21,144.38 L 360.41,145.20 L 360.40,145.59 L 359.79,146.22 L 357.97,146.80 L 357.12,146.89 L 355.45,146.37 L 355.40,146.34 L 355.56,146.35 L 355.75,146.19 L 356.11,145.77 L 356.31,145.42 L 356.67,143.61 L 356.39,142.23 L 355.99,141.49 L 355.32,139.54 L 355.25,138.40 L 355.37,138.22 M 343.86,138.51 L 343.79,139.75 L 344.04,142.05 L 344.13,142.56 L 344.37,143.40 L 344.81,144.21 L 345.25,144.65 L 345.74,145.70 L 345.93,146.24 L 345.93,146.60 L 345.87,146.49 L 345.47,146.00 L 345.07,146.00 L 344.22,145.41 L 343.67,144.54 L 343.50,143.99 L 342.98,142.72 L 342.66,142.26 L 342.51,142.21 L 342.22,142.25 L 342.09,142.44 L 341.84,142.95 L 341.72,143.36 L 341.51,144.31 L 341.43,144.95 L 341.27,146.32 L 341.26,146.41 L 341.26,146.35 L 341.41,143.97 L 341.49,142.82 L 341.69,140.72 L 341.79,139.71 L 342.01,137.97 L 342.13,137.15 L 342.14,137.10 L 342.29,137.41 L 342.72,138.00 L 343.00,138.00 L 343.71,137.41 L 343.81,137.10 M 398.00,137.88 L 398.00,138.59 L 397.50,140.68 L 396.67,141.54 L 395.98,141.72 L 395.05,142.04 L 394.67,142.27 L 394.61,142.42 L 394.55,142.73 L 394.64,142.93 L 394.88,143.35 L 395.10,143.62 L 395.91,144.42 L 396.35,144.64 L 397.28,144.95 L 397.77,144.93 L 398.76,144.76 L 399.27,144.50 L 399.85,144.13 L 399.29,144.61 L 397.66,145.46 L 396.85,145.81 L 395.37,146.00 L 394.68,146.01 L 393.67,145.54 L 393.46,145.38 L 393.18,144.93 L 393.06,144.68 L 393.00,144.07 L 393.00,143.45 L 393.58,142.56 L 395.25,141.82 L 395.65,141.76 L 396.30,141.52 L 396.60,141.38 L 397.05,140.94 L 397.26,140.69 L 397.55,140.03 L 397.82,138.75 L 397.91,137.97 L 397.75,136.97 M 352.95,144.45 L 352.97,144.47 L 352.97,144.47 L 352.83,144.31 M 401.30,142.62 L 401.22,142.69 L 401.44,142.36 M 351.46,142.50 L 351.36,142.33 L 351.36,142.33 M 402.75,136.20 L 402.54,138.44 L 402.42,139.46 L 402.08,140.93 L 401.87,141.60 L 401.59,142.11 L 401.98,141.09 L 402.14,140.37 L 402.45,138.81 L 402.57,137.85 L 402.77,135.82 M 350.77,140.42 L 350.94,141.09 L 351.09,141.54 L 350.94,141.10 L 350.77,140.43 L 350.59,138.65 L 350.50,135.01 L 350.59,138.65 M 366.85,137.99 L 366.75,138.69 L 366.09,139.85 L 364.75,140.81 L 364.27,140.90 L 363.51,140.93 L 363.20,140.91 L 363.00,140.73 L 363.00,140.67 L 363.17,140.37 L 363.27,140.20 L 363.62,139.72 L 365.10,137.90 L 367.19,135.50 M 387.12,137.35 L 387.31,137.86 L 387.47,138.04 L 387.84,138.36 L 388.10,138.44 L 388.65,138.57 L 389.00,138.57 L 390.48,138.09 L 390.76,137.68 L 390.74,137.78 L 390.08,138.89 L 388.75,139.81 L 388.41,139.88 L 387.91,139.83 L 387.68,139.77 L 387.37,139.44 L 387.23,139.24 L 387.08,138.57 L 387.02,138.19 L 387.00,137.13 L 387.00,136.34 L 387.04,137.07 M 330.79,130.89 L 331.44,132.14 L 331.62,132.40 L 331.99,132.77 L 332.58,133.00 L 333.06,133.00 L 333.63,133.16 L 333.85,133.27 L 333.89,133.73 L 333.85,134.01 L 333.36,134.87 L 332.00,136.73 L 330.00,139.27 L 330.00,134.13 L 329.94,132.88 L 329.89,132.33 L 329.69,131.68 L 329.57,131.43 L 329.60,131.44 L 330.08,132.06 L 330.12,132.68 L 330.16,133.39 L 330.19,133.59 L 330.25,133.90 L 330.29,133.91 L 330.38,133.83 L 330.44,133.64 L 330.58,133.18 L 330.68,132.80 L 330.82,131.35 L 330.74,130.72 M 390.64,135.34 L 390.80,135.57 L 390.81,135.99 L 390.71,135.61 L 390.29,135.34 L 390.52,135.32 M 389.31,135.46 L 390.08,135.45 L 390.26,135.34 L 390.00,135.50 L 389.29,135.46 L 389.06,135.04 M 366.34,128.97 L 366.64,129.47 L 366.77,129.78 L 366.87,130.75 L 366.77,132.66 L 366.39,135.50 L 365.57,132.70 L 365.35,131.93 L 365.18,130.55 L 365.16,130.24 L 365.20,129.75 L 365.38,129.29 L 365.66,129.01 L 366.12,128.93 M 387.61,133.98 L 388.00,133.50 L 387.44,134.36 M 343.47,134.26 L 343.27,134.00 L 343.31,134.00 M 351.43,132.99 L 351.71,134.17 L 351.41,133.04 L 351.43,132.26 L 351.62,130.71 L 351.63,130.68 L 351.45,132.21 M 314.92,130.59 L 316.04,131.00 L 316.49,131.00 L 317.47,131.32 L 317.62,131.80 L 317.42,132.13 L 317.49,132.47 L 317.85,132.63 L 318.02,132.65 L 317.61,132.68 L 316.05,132.77 L 315.33,132.81 L 314.17,132.86 L 313.64,132.88 L 312.84,132.88 L 312.48,132.88 L 312.01,132.82 L 311.80,132.78 L 311.61,132.66 L 311.55,132.59 L 311.60,132.40 L 312.50,131.53 L 312.89,131.21 L 313.41,130.71 L 313.63,130.47 L 313.81,130.08 L 313.86,129.90 L 313.84,129.86 M 307.69,126.39 L 307.89,126.71 L 307.95,126.93 L 307.84,127.77 L 307.37,129.75 L 307.17,130.49 L 306.66,131.41 L 306.40,131.77 L 305.89,131.93 L 305.64,131.91 L 305.26,131.32 L 305.10,130.94 L 305.00,129.61 L 305.00,128.95 L 305.44,127.75 L 306.50,126.64 L 306.91,126.48 L 307.46,126.39 M 328.55,131.39 L 328.30,131.44 L 328.06,131.53 L 327.00,131.74 L 326.93,131.75 L 327.07,131.72 L 328.25,131.38 M 335.61,122.45 L 336.00,123.86 L 336.00,124.22 L 335.88,124.73 L 335.80,124.96 L 335.49,125.23 L 335.31,125.34 L 334.76,125.39 L 333.62,125.27 L 332.96,125.14 L 331.73,125.27 L 330.54,125.93 L 330.27,126.37 L 330.18,127.77 L 330.20,128.52 L 330.53,129.98 L 329.70,128.41 L 329.08,127.90 L 328.43,127.45 L 328.09,127.32 L 327.41,127.13 L 327.07,127.16 L 326.79,127.21 L 327.38,127.00 L 327.55,127.00 L 328.06,126.80 L 328.33,126.68 L 328.97,126.27 L 331.00,124.50 L 331.69,123.76 L 332.95,122.79 L 333.55,122.38 L 334.54,122.10 L 334.99,122.04 M 313.91,125.39 L 314.12,125.64 L 314.56,126.31 L 314.68,126.67 L 314.64,126.82 L 314.50,127.10 L 314.34,127.23 L 313.94,127.47 L 313.64,127.59 L 312.87,127.95 L 312.60,128.19 L 312.58,128.34 L 312.64,128.64 L 312.76,128.82 L 312.59,128.67 L 312.47,128.54 L 312.45,128.31 L 312.48,128.20 L 312.76,127.98 L 313.53,127.63 L 313.86,127.50 L 314.29,127.25 L 314.48,127.12 L 314.63,126.82 L 314.67,126.67 L 314.55,126.29 L 314.08,125.60 L 313.85,125.32 L 313.82,125.21 M 327.90,114.90 L 327.72,115.20 L 327.24,115.92 L 326.33,117.25 L 325.94,117.81 L 324.85,119.12 L 324.27,119.78 L 322.93,121.18 L 322.24,121.88 L 320.80,123.20 L 318.72,124.91 L 318.06,125.40 L 316.96,126.32 L 316.45,126.76 L 315.71,127.53 L 315.40,127.88 L 315.10,128.40 L 315.22,128.82 L 315.13,128.79 L 314.81,128.47 L 314.89,128.11 L 315.08,127.87 L 315.55,127.35 L 315.92,127.03 L 316.76,126.37 L 317.31,125.99 L 319.66,124.04 L 320.15,123.49 L 320.27,123.27 L 320.42,122.88 L 320.36,122.77 L 319.75,122.36 L 319.24,122.35 L 319.00,122.50 L 318.20,122.56 L 317.65,122.25 L 317.47,121.95 L 316.49,121.57 L 316.11,121.75 L 316.95,121.04 L 318.05,120.16 L 320.05,118.96 L 320.50,118.72 L 321.20,118.45 L 321.87,118.42 L 322.12,118.57 L 322.87,118.38 L 324.01,117.49 L 324.26,117.19 L 324.56,116.75 L 324.68,116.55 L 324.71,116.29 L 324.69,116.18 L 324.44,116.06 L 323.75,116.00 L 323.42,116.00 L 323.20,115.94 L 325.10,115.80 L 327.24,115.29 L 327.93,114.83 M 425.00,121.27 L 424.37,121.98 L 423.99,122.28 L 422.94,122.58 L 422.94,122.58 L 423.99,122.28 L 424.37,121.98 L 425.00,121.27 M 420.40,112.50 L 420.52,112.59 L 420.72,113.01 L 420.81,113.27 L 420.93,114.01 L 421.00,115.44 L 421.00,116.16 L 421.08,117.22 L 421.14,117.69 L 421.39,118.31 L 421.50,118.50 L 421.00,117.67 L 421.00,117.00 L 420.75,115.59 L 420.38,115.00 L 420.14,115.00 L 419.74,115.59 L 419.65,116.49 L 419.68,117.11 L 419.80,118.46 L 419.93,119.22 L 420.24,120.77 L 420.47,121.54 L 420.95,122.30 L 421.27,122.42 L 420.95,122.30 L 420.46,121.54 L 420.18,120.60 L 419.79,118.62 L 419.62,117.64 L 419.47,115.82 L 419.42,114.96 L 419.52,113.63 L 419.97,112.52 L 420.13,112.42 M 382.90,116.59 L 383.00,118.00 L 383.00,118.69 L 382.48,119.52 L 380.85,120.00 L 380.32,120.00 L 379.66,119.96 L 379.39,119.92 L 379.23,119.73 L 379.21,119.60 L 379.52,119.13 L 379.73,118.85 L 380.50,118.00 L 381.00,117.45 L 381.88,116.59 L 382.65,116.00 L 382.75,116.00 M 358.02,116.56 L 359.90,117.00 L 360.60,117.00 L 361.30,117.36 L 361.36,118.50 L 361.15,119.04 L 360.57,119.65 L 360.24,119.87 L 359.32,119.81 L 358.80,119.69 L 357.39,118.93 L 356.61,118.46 L 354.68,117.05 L 354.80,117.12 L 355.90,117.68 L 356.37,117.84 L 357.25,118.06 L 357.54,118.03 L 358.00,117.84 L 358.00,117.57 L 357.44,116.50 L 356.91,115.99 M 374.31,114.15 L 374.72,114.49 L 375.52,115.44 L 375.93,115.97 L 376.56,117.05 L 377.00,118.19 L 377.00,118.51 L 376.57,118.85 L 376.30,118.98 L 375.53,118.96 L 375.13,118.91 L 374.27,118.57 L 373.86,118.36 L 373.18,117.72 L 372.83,117.30 L 372.63,116.39 L 373.08,114.97 L 373.28,114.65 L 373.63,114.28 L 373.79,114.14 L 374.13,114.12 M 442.41,112.43 L 442.74,112.69 L 442.94,113.45 L 442.97,113.86 L 442.56,114.72 L 441.25,115.85 L 441.01,115.98 L 440.23,116.26 L 439.81,116.41 L 438.76,116.70 L 437.08,117.07 L 437.23,117.03 L 437.94,116.78 L 438.19,116.65 L 438.93,116.12 L 438.90,115.88 L 438.58,115.41 L 438.03,115.25 L 437.42,115.11 L 437.01,115.07 L 436.14,115.00 L 435.61,115.00 L 433.81,115.28 L 435.84,114.81 L 436.41,114.76 L 437.35,114.59 L 437.79,114.50 L 438.46,114.25 L 438.75,114.11 L 439.10,113.79 L 439.25,113.25 L 439.18,112.91 L 439.66,112.37 L 441.00,112.00 L 441.62,112.00 M 431.64,116.50 L 431.52,116.83 L 431.58,116.64 L 431.67,116.42 M 354.68,114.44 L 356.36,115.50 L 356.43,115.57 L 356.07,115.33 L 354.95,114.63 L 354.38,114.39 L 353.26,114.00 L 353.33,114.00 M 390.29,114.25 L 389.92,114.03 L 389.77,113.88 L 389.93,113.99 L 390.36,114.19 L 391.56,114.27 L 393.57,113.79 L 391.45,114.34 M 328.53,113.46 L 328.46,113.84 L 328.42,113.93 L 328.53,113.44 M 328.30,112.44 L 328.51,112.77 L 328.52,113.35 L 328.35,112.87 L 327.80,111.81 M 389.62,111.98 L 389.51,112.09 L 389.70,111.86 M 326.17,110.30 L 325.71,110.09 L 325.49,110.19 L 325.05,110.54 L 324.79,110.95 L 324.24,111.96 L 324.25,111.94 L 324.81,110.92 L 325.06,110.50 L 325.50,110.16 L 325.72,110.07 M 379.08,109.54 L 379.33,110.27 L 379.62,110.95 L 379.81,111.21 L 380.15,111.56 L 380.09,111.55 L 379.65,111.29 L 379.19,110.26 L 379.02,109.69 L 379.08,108.27 L 379.09,108.16 M 326.24,110.33 L 326.77,110.82 L 326.21,110.32 M 384.69,109.99 L 385.30,110.14 L 386.03,110.18 L 385.63,110.21 L 385.32,110.16 L 383.91,109.81 L 383.67,109.68 M 351.55,106.38 L 351.96,106.54 L 352.47,106.79 L 352.68,106.91 L 352.76,107.17 L 352.75,107.31 L 352.41,107.68 L 351.40,108.50 L 350.87,108.90 L 349.98,109.45 L 349.56,109.68 L 348.91,109.90 L 348.61,109.96 L 348.24,109.84 L 348.09,109.73 L 348.02,109.25 L 348.03,108.76 L 348.36,107.89 L 348.57,107.48 L 349.19,106.85 L 349.53,106.57 L 350.32,106.29 M 386.99,106.41 L 388.89,108.68 L 389.22,109.08 L 389.68,109.76 L 389.71,109.80 L 389.63,109.76 L 389.16,109.39 L 388.91,109.12 L 387.83,107.82 L 387.34,107.00 L 386.74,106.10 M 386.18,109.00 L 386.67,109.27 L 386.69,109.46 L 386.67,109.44 L 386.22,109.12 L 386.02,109.00 M 379.28,107.21 L 379.70,105.99 L 379.78,105.85 M 385.02,104.00 L 385.14,104.15 L 385.00,104.12 L 384.63,104.25 L 384.58,104.65 L 384.59,105.65 L 384.23,105.00 L 383.95,104.62 L 383.25,104.33 L 382.88,104.26 L 382.12,104.61 L 381.06,105.88 L 380.83,106.31 L 380.61,106.97 L 380.61,106.99 L 380.59,106.86 L 380.59,106.15 L 380.69,105.73 L 380.88,104.69 L 380.91,104.29 L 380.86,104.24 L 380.78,104.23 L 381.00,103.86 L 383.00,101.50 M 348.75,85.51 L 347.19,86.29 L 344.01,88.40 L 342.44,89.53 L 339.48,92.11 L 338.06,93.43 L 335.63,96.20 L 332.90,100.25 L 332.42,101.17 L 331.62,102.48 L 331.23,103.04 L 330.56,103.67 L 330.23,103.91 L 329.61,103.92 L 329.30,103.86 L 328.65,103.31 L 328.55,103.22 L 328.60,102.83 L 328.66,102.61 L 328.98,102.03 L 330.73,99.90 L 331.88,98.77 L 333.83,96.58 L 334.73,95.52 L 336.13,93.59 L 336.74,92.67 L 337.46,91.16 L 337.66,89.57 L 337.68,89.60 L 338.11,90.45 L 338.41,90.50 L 338.73,90.48 L 338.93,90.38 L 339.35,90.12 L 339.62,89.90 L 340.59,89.28 L 341.00,89.22 L 341.00,89.39 L 341.31,89.44 L 341.81,89.27 L 342.17,89.10 L 342.96,88.71 L 343.43,88.44 L 344.43,87.86 L 344.98,87.51 L 348.03,85.74 L 348.85,85.33 L 349.15,85.20 L 349.68,85.00 L 349.74,85.00 M 360.54,94.38 L 361.07,94.58 L 361.61,95.16 L 361.80,95.46 L 361.71,96.16 L 361.59,96.51 L 360.91,97.20 L 359.27,98.10 L 358.82,98.26 L 358.19,98.42 L 357.92,98.47 L 357.60,98.36 L 357.48,98.27 L 357.41,97.84 L 357.41,97.59 L 357.54,96.81 L 357.67,96.12 L 357.96,95.16 L 358.11,94.75 L 358.51,94.28 L 358.73,94.10 L 359.32,94.06 M 323.31,87.21 L 322.72,86.47 L 321.94,85.13 L 321.72,84.69 L 321.94,85.13 L 322.73,86.48 L 323.32,87.22 L 324.63,88.75 L 325.53,89.70 L 324.63,88.75 M 344.78,83.45 L 343.14,84.27 L 342.53,84.79 L 341.46,85.89 L 341.17,86.53 L 340.04,88.27 L 339.21,89.00 L 338.90,89.00 L 338.38,88.57 L 338.66,87.84 L 339.13,87.25 L 339.81,86.35 L 340.02,86.03 L 340.00,86.00 L 339.87,86.03 L 339.67,86.17 L 339.19,86.53 L 338.81,86.82 L 337.78,88.18 L 337.52,89.20 L 337.52,89.20 L 337.70,88.35 L 337.86,87.92 L 338.62,86.98 L 339.07,86.51 L 340.38,85.52 L 342.90,84.02 L 343.19,83.86 L 344.06,83.56 L 344.52,83.41 L 345.43,83.17 M 327.30,85.88 L 327.26,85.82 L 327.25,85.80 M 325.95,83.61 L 327.10,85.57 L 325.98,83.76 L 325.59,82.59 L 325.00,80.18 L 325.00,79.83 L 325.57,82.38 M 354.00,82.43 L 354.00,82.49 L 353.59,82.82 L 353.32,83.00 L 352.86,83.28 L 353.57,82.71 L 353.86,82.37 L 353.81,82.31 M 350.40,82.27 L 350.58,82.25 L 350.71,82.24 M 353.62,82.19 L 353.69,82.23 L 353.59,82.19 M 353.12,82.13 L 352.52,82.13 L 352.60,82.13 L 353.03,82.12 M 426.29,78.40 L 426.67,78.93 L 426.36,78.87 L 426.20,78.79 L 426.06,78.36 L 426.01,78.08 L 426.00,77.21 L 426.00,76.94 L 426.11,78.02 M 429.39,75.56 L 429.71,75.78 L 429.95,76.44 L 430.00,76.79 L 429.65,77.51 L 428.42,78.39 L 427.85,78.61 L 427.42,78.75 L 427.71,78.58 L 428.00,77.96 L 428.00,77.56 L 427.71,76.36 L 427.27,75.67 L 427.18,75.61 L 428.00,75.27 L 428.59,75.23 M 354.49,77.01 L 354.38,77.06 L 354.50,76.99 M 322.07,71.72 L 323.12,72.61 L 323.75,73.18 L 324.53,74.91 L 324.70,76.14 L 324.58,75.90 L 324.22,75.33 L 323.96,75.14 L 323.39,74.81 L 323.00,74.71 L 321.50,74.49 L 320.88,74.71 L 320.73,75.09 L 320.66,75.40 L 320.70,74.48 L 320.83,73.21 L 320.93,72.66 L 321.11,71.97 L 321.20,71.69 L 321.46,71.49 L 321.61,71.45 M 395.87,75.35 L 395.63,75.67 L 395.43,75.76 L 394.97,75.89 L 394.65,75.89 L 393.93,75.84 L 393.47,75.75 L 391.82,75.55 L 391.69,75.56 L 391.78,75.55 L 393.33,75.72 L 393.82,75.82 L 394.56,75.84 L 394.90,75.82 L 395.40,75.56 L 395.63,75.39 L 395.96,74.83 M 391.44,75.61 L 391.36,75.69 L 391.29,75.63 L 391.45,75.60 M 402.33,64.90 L 402.09,65.76 L 401.78,67.66 L 401.88,68.90 L 401.95,69.38 L 402.03,69.51 L 402.22,69.69 L 402.37,69.66 L 402.73,69.53 L 402.98,69.35 L 403.55,68.90 L 403.93,68.56 L 405.03,67.74 L 403.55,69.11 L 401.33,72.43 L 401.00,73.13 L 400.35,74.17 L 400.02,74.64 L 399.36,75.23 L 399.34,75.14 L 399.16,74.69 L 398.92,74.40 L 397.81,73.37 L 397.14,73.04 L 396.88,73.06 L 396.49,73.19 L 396.67,72.45 L 397.72,70.32 L 398.31,69.26 L 399.88,67.20 L 400.70,66.21 L 402.56,64.49 L 402.86,64.30 M 349.02,70.78 L 349.55,71.37 L 350.02,71.93 L 350.14,72.13 L 350.31,72.50 L 350.28,72.54 L 350.12,72.23 L 350.00,72.04 L 349.58,71.53 L 347.82,69.73 M 350.73,67.49 L 352.49,70.15 L 352.75,70.64 L 352.22,69.79 L 350.46,67.17 M 424.35,69.31 L 424.49,69.32 L 424.97,69.02 L 424.48,69.32 M 423.25,69.15 L 423.03,69.08 L 422.38,68.69 L 422.03,68.41 M 338.76,61.04 L 340.74,61.34 L 341.71,61.53 L 341.83,61.57 L 341.05,61.44 L 339.42,61.26 L 338.87,61.36 L 338.38,61.49 L 338.23,61.61 L 338.00,61.87 L 338.00,62.06 L 337.63,62.74 L 337.09,62.97 L 336.75,62.93 L 334.30,62.79 L 332.78,62.86 L 332.18,62.96 L 331.08,63.21 L 330.78,63.39 L 330.36,63.77 L 330.50,64.00 L 330.51,64.71 L 330.07,65.00 L 329.67,65.00 L 328.47,65.44 L 327.80,66.09 L 327.64,66.50 L 327.45,67.57 L 327.69,67.92 L 328.00,67.92 L 328.78,67.81 L 329.38,67.57 L 330.73,66.98 L 331.64,66.51 L 334.19,65.51 L 335.97,65.12 L 336.88,65.07 L 337.19,65.07 L 335.13,65.34 L 330.61,67.07 L 329.93,67.43 L 328.81,67.94 L 328.28,68.16 L 327.41,68.40 L 327.01,68.48 L 326.39,68.45 L 325.69,68.09 L 325.51,67.91 L 325.36,67.47 L 325.31,67.24 L 325.41,66.72 L 325.56,66.19 L 326.50,65.01 L 327.06,64.43 L 328.64,63.32 L 331.50,62.00 L 332.55,61.65 L 334.65,61.24 L 335.69,61.08 L 337.74,61.03 M 414.40,64.98 L 415.17,65.10 L 416.71,65.41 L 417.44,65.67 L 418.90,66.27 L 419.36,66.54 L 418.40,66.15 L 414.28,65.30 L 412.81,65.17 L 410.12,65.49 L 408.82,65.74 L 406.51,66.77 L 405.74,67.20 L 405.96,67.03 L 407.40,66.22 L 408.16,65.92 L 409.69,65.39 L 410.47,65.23 L 412.04,64.98 L 412.83,64.95 M 344.20,66.95 L 344.41,67.10 L 343.79,66.71 M 343.37,66.45 L 343.47,66.51 L 343.20,66.36 M 339.61,65.21 L 341.42,65.59 L 341.81,65.74 L 339.60,65.21 M 414.63,61.08 L 413.92,61.21 L 413.57,61.44 L 413.00,61.97 L 413.00,62.37 L 412.81,62.98 L 412.47,63.24 L 412.17,63.29 L 411.48,63.34 L 410.98,63.30 L 409.88,63.16 L 409.14,63.03 L 405.70,62.83 L 404.73,63.07 L 405.45,62.59 L 406.39,62.15 L 408.78,61.53 L 410.01,61.27 L 412.52,61.05 L 413.73,60.99 M 401.36,131.75 L 401.47,131.01 L 401.70,129.91 L 401.82,129.43 L 402.05,128.83 L 402.16,128.60 L 402.38,128.51 L 402.42,128.52 L 402.37,128.52 L 402.16,128.61 L 402.05,128.85 L 401.81,129.45 L 401.70,129.93 L 401.47,131.03 L 401.36,131.77 L 401.16,133.37 L 401.07,134.37 L 401.16,133.37 M 325.52,128.02 L 325.30,128.40 L 325.52,128.02 M 352.75,114.00 L 352.82,114.00 L 352.72,114.00 M 324.96,78.12 L 325.00,78.43 L 325.00,78.89 M 416.86,61.51 L 417.50,62.00 L 416.79,61.48 Z" fill="rgba(52,143,46,1)"/>
<path d="M 347.85,153.68 L 348.77,154.28 L 350.91,155.93 L 352.66,157.32 L 356.30,159.59 L 358.15,160.64 L 362.03,162.27 L 364.00,163.00 L 368.16,164.00 L 374.78,164.82 L 375.63,164.86 L 377.10,164.96 L 377.80,165.01 L 378.99,165.11 L 380.11,165.23 L 381.67,165.53 L 382.35,165.70 L 383.23,166.17 L 384.07,167.13 L 384.30,167.57 L 384.42,168.16 L 384.38,168.42 L 383.64,168.72 L 383.38,168.78 L 382.64,168.85 L 382.22,168.89 L 381.13,168.92 L 380.53,168.94 L 379.04,168.94 L 376.29,168.93 L 374.88,168.92 L 372.19,168.78 L 370.88,168.70 L 368.43,168.42 L 367.24,168.26 L 365.09,167.84 L 364.06,167.62 L 362.28,167.08 L 361.62,166.86 L 359.96,166.13 L 359.09,165.73 L 357.15,164.75 L 355.17,163.72 L 351.17,161.38 L 350.23,160.80 L 348.58,159.73 L 347.80,159.21 L 346.62,158.34 L 346.11,157.93 L 345.58,157.37 L 345.75,157.01 L 346.09,157.01 L 346.63,156.39 L 347.00,154.92 L 347.00,154.43 L 347.10,153.85 L 347.18,153.63 L 347.59,153.62 M 338.98,163.68 L 340.28,165.30 L 340.63,165.84 L 341.05,166.57 L 341.22,166.88 L 341.24,167.26 L 341.20,167.41 L 340.79,167.54 L 339.64,167.60 L 339.26,167.60 L 338.65,167.47 L 338.38,167.38 L 337.96,167.06 L 337.78,166.88 L 337.54,166.35 L 337.44,166.06 L 337.35,165.30 L 337.32,164.67 L 337.48,163.68 L 337.99,163.00 L 338.21,163.00 M 332.69,151.00 L 333.44,151.41 L 333.81,151.66 L 334.51,152.50 L 334.84,152.96 L 335.44,154.12 L 335.72,154.72 L 336.19,156.08 L 336.62,157.47 L 336.93,160.37 L 336.95,161.07 L 336.81,162.35 L 336.30,164.00 L 335.95,164.69 L 335.40,165.40 L 335.28,165.51 L 335.12,165.54 L 335.05,165.52 L 335.01,165.25 L 335.01,164.91 L 335.03,164.18 L 335.09,163.36 L 335.11,163.19 L 334.86,162.73 L 334.19,162.11 L 334.06,162.03 L 333.69,161.46 L 333.50,161.12 L 333.05,160.14 L 331.66,156.25 L 331.47,155.60 L 331.16,154.53 L 331.01,154.03 L 330.81,153.23 L 330.62,152.49 L 330.59,151.67 L 330.63,151.34 L 331.07,151.09 L 332.30,151.00 M 405.90,154.31 L 405.66,155.45 L 405.56,155.71 L 405.50,156.08 L 405.49,156.24 L 405.63,156.42 L 405.72,156.49 L 406.06,156.49 L 406.80,156.29 L 407.11,156.18 L 407.45,156.16 L 407.57,156.18 L 407.54,156.44 L 407.48,156.61 L 407.08,157.17 L 406.05,158.37 L 405.37,159.11 L 403.94,160.13 L 403.61,160.33 L 403.02,160.55 L 402.33,160.57 L 401.98,160.44 L 401.23,160.56 L 400.38,161.20 L 400.16,161.56 L 400.20,161.82 L 401.00,161.50 L 401.43,161.23 L 401.80,161.19 L 401.60,161.85 L 401.40,162.16 L 401.04,162.62 L 400.69,162.87 L 400.66,162.85 L 400.34,162.76 L 400.14,162.71 L 399.53,162.56 L 398.86,162.40 L 397.00,162.00 L 396.52,161.90 L 395.73,161.70 L 395.37,161.61 L 394.87,161.44 L 394.66,161.36 L 394.49,161.24 L 394.67,161.13 L 394.83,161.11 L 395.49,160.80 L 395.86,160.61 L 396.85,160.01 L 400.43,157.50 L 401.06,157.02 L 402.13,156.22 L 402.64,155.85 L 403.49,155.25 L 403.88,154.98 L 404.51,154.59 L 404.81,154.42 L 405.24,154.21 L 405.64,154.06 M 342.66,142.26 L 342.98,142.72 L 343.50,143.99 L 343.67,144.54 L 344.22,145.41 L 345.07,146.00 L 345.47,146.00 L 345.87,146.49 L 346.01,146.79 L 345.93,147.71 L 345.83,148.20 L 345.29,149.32 L 344.05,150.95 L 343.69,151.31 L 343.16,152.04 L 342.93,152.41 L 342.65,153.22 L 342.55,153.64 L 342.50,154.60 L 342.67,156.33 L 342.82,157.28 L 342.74,159.31 L 342.70,159.79 L 342.52,160.64 L 342.14,161.64 L 341.94,161.99 L 341.62,162.03 L 341.55,161.98 L 341.43,161.69 L 341.38,161.50 L 341.28,160.93 L 341.24,160.61 L 341.17,159.75 L 341.14,159.28 L 341.10,158.10 L 341.08,157.47 L 341.05,155.97 L 341.04,155.17 L 341.03,153.31 L 341.03,152.10 L 341.07,149.96 L 341.10,148.93 L 341.21,147.16 L 341.27,146.32 L 341.43,144.95 L 341.51,144.31 L 341.72,143.36 L 341.84,142.95 L 342.09,142.44 L 342.22,142.25 L 342.51,142.21 M 410.27,158.00 L 410.61,158.32 L 410.76,158.52 L 410.90,159.11 L 410.79,160.14 L 410.62,160.65 L 410.29,160.90 L 410.11,160.90 L 409.58,160.13 L 409.37,159.79 L 409.21,159.06 L 409.40,158.27 L 409.62,158.04 L 410.06,157.98 M 420.36,149.42 L 420.73,149.95 L 421.53,151.39 L 421.82,151.96 L 422.20,152.88 L 422.35,153.31 L 422.45,154.08 L 422.46,154.46 L 422.29,155.21 L 421.74,156.47 L 421.49,156.92 L 421.06,157.54 L 420.84,157.81 L 420.42,158.08 L 420.20,158.17 L 419.72,158.12 L 419.46,158.05 L 418.85,157.70 L 418.26,157.32 L 417.78,156.41 L 418.02,154.57 L 418.25,154.00 L 418.78,152.54 L 419.46,150.56 L 419.60,150.12 L 419.84,149.59 L 419.96,149.39 L 420.22,149.37 M 414.87,149.50 L 414.90,150.88 L 414.66,153.47 L 414.58,154.06 L 414.37,155.02 L 414.00,156.00 L 413.81,156.30 L 413.53,156.62 L 413.40,156.74 L 413.24,156.68 L 413.17,156.61 L 413.10,156.15 L 413.07,155.88 L 413.07,155.00 L 413.08,154.66 L 413.15,153.71 L 413.20,153.21 L 413.35,152.06 L 413.94,148.50 L 414.77,144.50 M 379.16,148.13 L 381.47,149.97 L 381.90,150.41 L 382.54,151.20 L 382.82,151.58 L 383.17,152.22 L 383.31,152.51 L 383.36,152.98 L 383.08,153.45 L 382.78,153.63 L 381.98,153.71 L 380.85,153.40 L 380.49,153.18 L 380.19,153.19 L 380.40,153.85 L 380.67,154.27 L 380.68,154.76 L 380.61,154.94 L 380.14,154.97 L 379.86,154.93 L 379.13,154.53 L 378.76,154.28 L 377.99,153.49 L 377.57,152.99 L 376.76,152.60 L 375.58,152.93 L 375.25,153.21 L 374.36,153.37 L 373.01,153.01 L 372.62,152.77 L 371.70,152.56 L 370.55,152.70 L 370.40,152.78 L 370.34,152.71 L 370.35,152.65 L 370.55,152.32 L 370.69,152.14 L 371.14,151.60 L 372.04,150.62 L 372.95,149.67 L 374.60,148.44 L 375.41,147.94 L 376.92,147.62 L 377.67,147.56 M 352.58,127.25 L 352.74,127.41 L 352.64,128.31 L 351.98,130.04 L 351.62,130.71 L 351.43,132.26 L 351.41,133.04 L 351.81,134.53 L 352.07,135.23 L 352.91,136.29 L 354.54,137.00 L 354.98,137.00 L 355.47,137.32 L 355.44,138.10 L 355.25,138.40 L 355.32,139.54 L 355.99,141.49 L 356.39,142.23 L 356.67,143.61 L 356.31,145.42 L 356.11,145.77 L 355.75,146.19 L 355.56,146.35 L 355.13,146.33 L 354.90,146.26 L 354.27,145.77 L 353.92,145.46 L 352.95,144.45 L 352.43,143.89 L 351.68,142.86 L 351.36,142.33 L 350.94,141.09 L 350.77,140.42 L 350.59,138.65 L 350.50,135.01 L 350.50,133.41 L 350.64,130.91 L 350.73,129.77 L 351.03,128.22 L 351.21,127.56 L 351.68,126.99 M 402.48,128.53 L 402.65,128.93 L 402.73,129.19 L 402.84,130.08 L 402.89,130.59 L 402.92,131.97 L 402.84,134.60 L 402.77,135.81 L 402.57,137.85 L 402.45,138.81 L 402.14,140.37 L 401.98,141.09 L 401.56,142.18 L 400.80,143.35 L 400.29,143.85 L 399.27,144.50 L 398.76,144.76 L 397.77,144.93 L 397.28,144.95 L 396.35,144.64 L 395.91,144.42 L 395.10,143.62 L 394.88,143.35 L 394.64,142.93 L 394.55,142.73 L 394.61,142.42 L 394.67,142.27 L 395.05,142.04 L 395.98,141.72 L 396.67,141.54 L 397.50,140.68 L 398.00,138.59 L 398.00,137.88 L 397.69,136.76 L 396.94,136.00 L 396.65,136.00 L 396.36,135.73 L 396.44,135.09 L 396.60,134.84 L 397.42,134.61 L 399.00,134.71 L 399.55,134.85 L 400.43,134.83 L 401.07,134.37 L 401.16,133.37 L 401.36,131.77 L 401.47,131.03 L 401.70,129.93 L 401.81,129.45 L 402.05,128.85 L 402.16,128.61 L 402.37,128.52 M 405.69,124.15 L 405.89,124.24 L 406.40,124.62 L 407.35,125.49 L 407.76,125.90 L 408.52,126.33 L 409.26,126.24 L 409.37,126.04 L 409.42,126.16 L 409.23,127.00 L 408.99,127.80 L 408.75,129.04 L 408.66,129.61 L 408.74,130.43 L 408.81,130.78 L 409.21,131.19 L 410.17,131.37 L 410.74,131.33 L 411.61,131.99 L 412.00,132.41 L 412.44,133.71 L 412.59,134.39 L 412.51,135.92 L 411.69,138.03 L 411.31,138.57 L 410.53,139.22 L 410.16,139.45 L 409.66,139.33 L 409.48,139.15 L 409.19,138.40 L 408.98,137.08 L 408.97,136.87 L 408.78,136.01 L 408.66,135.53 L 408.26,134.28 L 406.59,129.75 L 406.29,129.04 L 405.83,127.81 L 405.62,127.23 L 405.31,126.27 L 405.18,125.83 L 405.04,125.14 L 404.99,124.83 L 405.02,124.41 L 405.05,124.23 L 405.23,124.08 L 405.35,124.03 M 388.71,133.54 L 389.00,134.50 L 389.00,134.94 L 389.29,135.46 L 390.00,135.50 L 390.27,135.33 L 390.71,135.61 L 391.00,136.73 L 391.00,137.32 L 390.48,138.09 L 389.00,138.57 L 388.65,138.57 L 388.10,138.44 L 387.84,138.36 L 387.47,138.04 L 387.31,137.86 L 387.12,137.35 L 387.04,137.07 L 387.00,136.34 L 387.00,135.73 L 387.29,134.59 L 388.00,133.50 L 388.27,133.33 M 343.71,134.59 L 344.00,136.00 L 344.00,136.55 L 343.71,137.41 L 343.00,138.00 L 342.72,138.00 L 342.29,137.41 L 342.11,137.05 L 342.00,136.00 L 342.00,135.45 L 342.29,134.59 L 343.00,134.00 L 343.27,134.00 M 317.47,121.95 L 317.65,122.25 L 318.20,122.56 L 319.00,122.50 L 319.24,122.35 L 319.75,122.36 L 320.36,122.77 L 320.42,122.88 L 320.27,123.27 L 320.15,123.49 L 319.66,124.04 L 317.31,125.99 L 316.76,126.37 L 315.92,127.03 L 315.55,127.35 L 315.08,127.87 L 314.89,128.11 L 314.81,128.47 L 315.13,128.79 L 318.00,129.73 L 318.61,129.96 L 320.04,130.12 L 320.77,130.16 L 322.23,129.98 L 322.94,129.85 L 324.13,129.38 L 325.30,128.40 L 325.53,127.99 L 326.11,127.49 L 326.41,127.29 L 327.07,127.16 L 327.41,127.13 L 328.09,127.32 L 328.43,127.45 L 329.08,127.90 L 329.70,128.41 L 330.54,129.99 L 330.69,130.42 L 330.82,131.35 L 330.68,132.80 L 330.58,133.18 L 330.44,133.64 L 330.38,133.83 L 330.29,133.91 L 330.25,133.90 L 330.19,133.59 L 330.16,133.39 L 330.12,132.68 L 330.08,132.06 L 329.60,131.44 L 328.25,131.38 L 327.07,131.72 L 324.47,132.23 L 323.18,132.45 L 320.81,132.68 L 320.26,132.72 L 319.30,132.74 L 318.86,132.74 L 318.16,132.67 L 317.85,132.63 L 317.49,132.47 L 317.42,132.13 L 317.62,131.80 L 317.47,131.32 L 316.49,131.00 L 316.04,131.00 L 314.92,130.59 L 313.45,129.60 L 313.15,129.30 L 312.78,128.85 L 312.64,128.64 L 312.58,128.34 L 312.60,128.19 L 312.87,127.95 L 313.64,127.59 L 313.94,127.47 L 314.34,127.23 L 314.50,127.10 L 314.64,126.82 L 314.68,126.67 L 314.56,126.31 L 314.12,125.64 L 313.91,125.39 L 313.68,124.92 L 313.61,124.69 L 313.66,124.22 L 313.72,123.98 L 314.06,123.47 L 314.90,122.59 L 315.54,122.01 L 316.49,121.57 M 359.15,122.52 L 359.86,122.57 L 361.29,122.97 L 361.99,123.22 L 363.29,123.96 L 364.91,125.40 L 365.28,125.84 L 365.74,126.50 L 365.87,126.90 L 365.82,126.88 L 365.45,126.78 L 365.23,126.72 L 364.58,126.54 L 363.88,126.35 L 362.00,125.83 L 361.04,125.56 L 359.01,125.10 L 358.54,125.00 L 357.71,124.84 L 356.75,124.71 L 356.15,124.66 L 355.43,124.41 L 355.15,124.26 L 355.07,123.88 L 355.10,123.68 L 355.63,123.25 L 357.11,122.68 L 357.74,122.52 M 420.75,115.59 L 421.00,117.00 L 421.00,117.67 L 421.50,118.50 L 423.00,119.00 L 423.63,119.00 L 424.47,119.47 L 425.00,120.79 L 425.00,121.27 L 424.37,121.98 L 423.99,122.28 L 422.94,122.58 L 422.40,122.67 L 421.41,122.47 L 420.95,122.30 L 420.47,121.54 L 420.24,120.77 L 419.93,119.22 L 419.80,118.46 L 419.68,117.11 L 419.65,116.49 L 419.74,115.59 L 420.14,115.00 L 420.38,115.00 M 385.23,104.16 L 385.94,104.91 L 387.34,107.00 L 387.83,107.82 L 388.91,109.12 L 389.16,109.39 L 389.63,109.76 L 390.18,110.00 L 390.51,110.00 L 390.60,110.43 L 389.94,111.58 L 389.48,112.12 L 389.31,113.04 L 389.32,113.46 L 389.92,114.03 L 390.29,114.25 L 391.45,114.34 L 393.57,113.79 L 394.38,113.42 L 396.43,113.24 L 397.49,113.24 L 399.71,113.71 L 400.79,114.01 L 402.74,114.99 L 404.86,116.92 L 405.25,117.50 L 405.72,118.25 L 405.90,118.56 L 405.94,118.83 L 405.91,118.91 L 405.48,118.76 L 404.29,118.16 L 403.63,117.80 L 402.62,117.35 L 402.17,117.16 L 401.59,117.05 L 401.36,117.04 L 401.22,117.27 L 401.50,118.00 L 401.69,118.30 L 401.77,118.67 L 401.73,118.81 L 401.16,118.83 L 400.96,118.82 L 400.40,118.71 L 400.08,118.65 L 399.26,118.45 L 398.81,118.34 L 397.69,118.04 L 397.09,117.88 L 395.63,117.48 L 394.96,117.30 L 393.45,116.73 L 392.68,116.42 L 391.10,115.66 L 390.32,115.26 L 388.86,114.41 L 387.02,113.14 L 386.37,112.61 L 385.27,111.84 L 384.76,111.50 L 383.92,111.09 L 383.53,110.93 L 382.91,110.88 L 382.22,111.18 L 381.90,111.50 L 381.30,111.78 L 381.01,111.87 L 380.48,111.75 L 380.23,111.65 L 379.81,111.21 L 379.62,110.95 L 379.33,110.27 L 379.08,109.54 L 379.09,107.70 L 380.10,105.00 L 380.32,104.70 L 380.61,104.35 L 380.74,104.22 L 380.86,104.24 L 380.91,104.29 L 380.88,104.69 L 380.69,105.73 L 380.59,106.15 L 380.59,106.86 L 380.63,107.20 L 380.92,107.79 L 381.10,108.07 L 381.73,108.60 L 383.09,109.40 L 383.91,109.81 L 385.32,110.16 L 385.63,110.21 L 386.10,110.17 L 386.55,109.92 L 386.71,109.67 L 386.67,109.27 L 386.18,109.00 L 385.92,109.00 L 385.37,108.27 L 384.76,106.50 L 384.59,105.66 L 384.58,104.65 L 384.63,104.25 L 385.00,104.12 M 354.38,114.39 L 354.95,114.63 L 356.07,115.33 L 356.61,115.70 L 357.44,116.50 L 358.00,117.57 L 358.00,117.84 L 357.54,118.03 L 357.25,118.06 L 356.37,117.84 L 355.90,117.68 L 354.80,117.12 L 354.25,116.80 L 353.14,115.97 L 352.58,115.50 L 351.87,114.87 L 351.58,114.60 L 351.41,114.28 L 351.38,114.15 L 351.73,114.04 L 352.82,114.00 L 353.26,114.00 M 437.01,115.07 L 437.42,115.11 L 438.03,115.25 L 438.58,115.41 L 438.90,115.88 L 438.93,116.12 L 438.19,116.65 L 437.94,116.78 L 437.23,117.03 L 435.88,117.38 L 434.76,117.60 L 433.24,117.85 L 432.58,117.94 L 431.84,117.90 L 431.55,117.84 L 431.40,117.47 L 431.38,117.24 L 431.64,116.50 L 431.73,116.27 L 432.11,115.88 L 432.34,115.69 L 432.97,115.40 L 435.61,115.00 L 436.14,115.00 M 326.20,110.31 L 327.21,111.21 L 327.79,111.79 L 328.35,112.87 L 328.54,113.39 L 328.34,114.27 L 328.15,114.68 L 327.24,115.29 L 325.10,115.80 L 322.25,116.01 L 323.86,112.74 L 324.24,111.96 L 324.79,110.95 L 325.05,110.54 L 325.49,110.19 L 325.71,110.09 M 362.75,106.21 L 363.16,106.35 L 364.04,106.80 L 364.95,107.29 L 366.79,108.71 L 367.67,109.46 L 369.06,111.03 L 369.35,111.41 L 369.75,112.12 L 370.00,113.05 L 370.00,113.43 L 369.88,114.01 L 369.80,114.27 L 369.54,114.63 L 369.25,114.92 L 368.30,114.86 L 367.78,114.71 L 366.48,113.79 L 365.80,113.23 L 364.29,111.49 L 363.62,110.64 L 362.70,109.56 L 362.30,109.11 L 361.79,108.77 L 361.57,108.69 L 361.27,109.04 L 360.85,110.24 L 360.71,110.71 L 360.51,111.27 L 360.43,111.47 L 360.30,111.47 L 360.25,111.40 L 360.18,110.82 L 360.10,109.25 L 360.08,108.65 L 360.14,107.73 L 360.19,107.31 L 360.39,106.73 L 360.51,106.47 L 360.89,106.17 L 361.66,106.00 L 361.98,106.00 M 402.41,80.61 L 402.82,80.69 L 403.77,81.21 L 405.66,82.55 L 406.59,83.26 L 408.68,85.23 L 409.18,85.73 L 410.10,86.72 L 411.21,88.06 L 411.87,88.96 L 413.09,90.10 L 413.70,90.56 L 415.00,90.84 L 415.69,90.88 L 417.31,90.31 L 420.36,88.53 L 424.00,86.06 L 424.00,89.65 L 423.85,90.61 L 423.75,91.05 L 423.32,91.78 L 423.06,92.12 L 422.25,92.74 L 420.50,93.70 L 419.54,94.16 L 418.03,95.11 L 417.71,95.33 L 417.28,95.71 L 417.00,96.15 L 417.00,96.31 L 417.35,96.90 L 417.57,97.22 L 418.30,98.07 L 418.70,98.51 L 419.71,99.53 L 420.24,100.05 L 421.44,101.15 L 422.66,102.25 L 425.25,104.35 L 425.88,104.83 L 427.05,105.66 L 428.59,106.62 L 429.52,107.12 L 431.00,108.25 L 431.31,108.53 L 431.73,109.02 L 432.00,109.61 L 432.00,110.17 L 431.38,110.84 L 430.98,111.10 L 429.72,111.17 L 429.03,111.14 L 427.34,110.63 L 426.46,110.30 L 424.55,109.22 L 423.68,108.67 L 422.53,107.87 L 422.04,107.50 L 421.58,106.95 L 421.42,106.70 L 421.54,106.25 L 422.28,105.54 L 422.60,105.31 L 423.01,104.90 L 423.19,104.71 L 423.33,104.34 L 423.36,104.16 L 423.24,103.78 L 422.77,103.17 L 422.34,102.74 L 421.64,102.26 L 421.31,102.08 L 420.79,102.10 L 420.55,102.18 L 420.19,102.71 L 419.82,104.08 L 419.75,104.56 L 419.57,105.14 L 419.46,105.36 L 419.09,105.37 L 418.87,105.30 L 418.15,104.68 L 416.50,103.01 L 416.09,102.58 L 415.46,101.84 L 415.19,101.50 L 414.86,100.98 L 414.74,100.75 L 414.75,100.51 L 415.16,100.51 L 415.50,100.64 L 415.99,100.67 L 416.21,100.64 L 416.47,100.27 L 416.58,100.03 L 416.67,99.14 L 416.65,97.12 L 416.62,96.34 L 416.47,95.12 L 416.38,94.56 L 416.05,93.71 L 415.86,93.33 L 415.31,92.74 L 414.18,92.04 L 413.45,91.71 L 412.24,91.45 L 411.69,91.38 L 410.93,91.58 L 410.62,91.74 L 410.47,92.34 L 411.07,93.59 L 411.40,93.98 L 411.63,94.59 L 411.34,95.00 L 411.20,95.00 L 410.80,94.73 L 410.59,94.56 L 410.10,94.02 L 409.60,93.42 L 408.51,91.76 L 408.00,90.91 L 407.21,89.27 L 407.05,88.90 L 406.86,88.27 L 406.82,87.60 L 406.90,87.35 L 406.84,86.50 L 406.50,85.13 L 406.37,84.80 L 406.15,84.38 L 406.05,84.20 L 405.84,84.10 L 405.74,84.09 L 405.49,84.31 L 405.02,84.97 L 404.83,85.27 L 404.44,85.63 L 404.22,85.77 L 403.66,85.79 L 403.35,85.75 L 402.47,85.42 L 400.65,84.51 L 397.16,82.63 L 399.72,81.30 L 400.29,81.00 L 401.19,80.67 L 401.62,80.55 M 323.00,74.71 L 323.39,74.81 L 323.96,75.14 L 324.22,75.33 L 324.58,75.90 L 324.73,76.22 L 324.90,77.11 L 325.00,78.89 L 325.00,80.18 L 325.59,82.59 L 325.98,83.76 L 327.26,85.82 L 327.98,86.80 L 329.84,88.37 L 333.15,90.00 L 333.50,90.11 L 333.91,90.33 L 334.06,90.44 L 334.05,90.75 L 333.99,90.92 L 333.53,91.39 L 332.33,92.35 L 329.85,94.20 L 325.53,89.70 L 324.63,88.75 L 323.32,87.22 L 322.73,86.48 L 321.94,85.13 L 321.59,84.45 L 321.17,82.99 L 320.78,80.35 L 320.71,79.62 L 320.62,78.40 L 320.58,77.83 L 320.54,76.91 L 320.52,76.05 L 320.73,75.09 L 320.88,74.71 L 321.50,74.49 M 353.13,82.13 L 353.50,82.15 L 353.79,82.28 L 353.86,82.37 L 353.57,82.71 L 352.56,83.53 L 352.03,83.93 L 350.94,84.57 L 349.79,85.00 L 349.68,85.00 L 349.15,85.20 L 348.85,85.33 L 348.03,85.74 L 344.98,87.51 L 344.43,87.86 L 343.43,88.44 L 342.96,88.71 L 342.17,89.10 L 341.81,89.27 L 341.31,89.44 L 341.00,89.39 L 341.00,89.22 L 340.59,89.28 L 339.62,89.90 L 339.35,90.12 L 338.93,90.38 L 338.73,90.48 L 338.41,90.50 L 338.11,90.45 L 337.68,89.60 L 337.52,89.20 L 337.78,88.18 L 338.81,86.82 L 339.19,86.53 L 339.67,86.17 L 339.87,86.03 L 340.00,86.00 L 340.02,86.03 L 339.81,86.35 L 339.13,87.25 L 338.66,87.84 L 338.38,88.57 L 338.90,89.00 L 339.21,89.00 L 340.04,88.27 L 341.17,86.53 L 341.46,85.89 L 342.53,84.79 L 343.14,84.27 L 344.78,83.45 L 345.67,83.07 L 347.81,82.55 L 351.50,82.15 L 352.21,82.13 M 367.86,77.00 L 368.20,77.22 L 368.48,77.89 L 368.55,78.25 L 368.26,78.97 L 367.11,79.80 L 366.69,79.94 L 366.29,79.83 L 366.42,79.13 L 366.62,78.81 L 366.50,78.32 L 365.67,78.00 L 365.27,78.00 L 364.47,78.44 L 363.64,79.50 L 363.44,80.03 L 362.59,80.65 L 362.13,80.89 L 361.00,80.94 L 360.43,80.91 L 359.33,80.42 L 358.81,80.12 L 358.06,79.12 L 357.84,78.70 L 357.64,78.11 L 357.59,77.85 L 357.84,77.53 L 358.03,77.39 L 358.83,77.24 L 360.78,77.12 L 361.80,77.08 L 363.99,76.96 L 364.51,76.93 L 365.43,76.86 L 366.50,76.75 L 367.07,76.68 M 397.81,73.37 L 398.92,74.40 L 399.16,74.69 L 399.34,75.14 L 399.38,75.35 L 399.09,75.67 L 398.88,75.82 L 398.04,76.09 L 396.06,76.49 L 395.17,76.64 L 393.97,76.90 L 393.46,77.03 L 392.96,77.31 L 392.78,77.46 L 392.86,77.85 L 393.51,78.66 L 394.10,79.25 L 394.77,80.05 L 395.01,80.39 L 394.94,80.74 L 394.81,80.86 L 393.96,80.80 L 393.44,80.73 L 391.75,80.31 L 391.42,80.22 L 390.96,80.01 L 390.77,79.89 L 390.58,79.57 L 390.52,79.40 L 390.59,78.94 L 390.97,78.06 L 391.23,77.56 L 391.50,76.64 L 391.43,75.76 L 391.36,75.69 L 391.44,75.61 L 391.51,75.57 L 391.82,75.55 L 393.47,75.75 L 393.93,75.84 L 394.65,75.89 L 394.97,75.89 L 395.43,75.76 L 395.63,75.67 L 395.87,75.35 L 396.00,74.62 L 396.00,74.12 L 396.24,73.48 L 396.39,73.22 L 396.88,73.06 L 397.14,73.04 M 427.27,75.67 L 427.71,76.36 L 428.00,77.56 L 428.00,77.96 L 427.71,78.58 L 427.00,79.00 L 426.72,79.00 L 426.29,78.40 L 426.11,78.02 L 426.00,76.94 L 426.00,76.37 L 426.29,75.67 L 427.00,75.50 M 341.05,61.44 L 341.93,61.59 L 343.91,62.20 L 346.78,63.53 L 347.18,63.77 L 348.08,64.53 L 348.53,64.95 L 349.48,66.01 L 350.43,67.12 L 352.22,69.79 L 353.06,71.13 L 354.25,73.65 L 354.49,74.24 L 354.77,75.24 L 354.82,76.39 L 354.71,76.88 L 354.05,77.24 L 353.85,77.28 L 353.30,77.22 L 353.00,77.16 L 352.25,76.91 L 351.77,76.73 L 351.01,76.14 L 350.66,75.81 L 350.20,75.03 L 350.01,74.63 L 349.91,73.78 L 350.25,72.60 L 350.31,72.50 L 350.14,72.13 L 350.02,71.93 L 349.55,71.37 L 349.02,70.78 L 347.37,69.33 L 346.50,68.60 L 344.65,67.26 L 344.20,66.95 L 343.37,66.45 L 342.30,65.92 L 341.42,65.59 L 339.61,65.21 L 338.70,65.07 L 336.88,65.07 L 335.97,65.12 L 334.19,65.51 L 331.64,66.51 L 330.73,66.98 L 329.38,67.57 L 328.78,67.81 L 328.00,67.92 L 327.69,67.92 L 327.45,67.57 L 327.64,66.50 L 327.80,66.09 L 328.47,65.44 L 329.67,65.00 L 330.07,65.00 L 330.51,64.71 L 330.50,64.00 L 330.36,63.77 L 330.78,63.39 L 331.08,63.21 L 332.18,62.96 L 332.78,62.86 L 334.30,62.79 L 336.75,62.93 L 337.09,62.97 L 337.63,62.74 L 338.00,62.06 L 338.00,61.87 L 338.23,61.61 L 338.38,61.49 L 338.87,61.36 L 339.42,61.26 M 416.41,61.20 L 417.50,62.00 L 417.67,62.27 L 418.51,62.71 L 420.06,63.00 L 420.59,63.00 L 421.43,63.31 L 422.00,64.06 L 422.00,64.35 L 422.25,64.65 L 422.85,64.59 L 422.97,64.52 L 423.38,64.59 L 423.60,64.66 L 424.16,64.99 L 426.10,66.69 L 426.43,67.05 L 426.95,67.67 L 427.19,67.95 L 427.49,68.37 L 427.61,68.56 L 427.67,68.75 L 427.45,68.73 L 427.16,68.56 L 426.29,68.57 L 424.97,69.02 L 424.49,69.32 L 423.39,69.23 L 421.52,68.09 L 420.91,67.55 L 419.58,66.67 L 418.90,66.27 L 417.44,65.67 L 416.71,65.41 L 415.17,65.10 L 414.40,64.98 L 412.83,64.95 L 412.04,64.98 L 410.47,65.23 L 409.69,65.39 L 408.16,65.92 L 407.40,66.22 L 405.96,67.03 L 403.93,68.56 L 403.55,68.90 L 402.98,69.35 L 402.73,69.53 L 402.37,69.66 L 402.22,69.69 L 402.03,69.51 L 401.95,69.38 L 401.88,68.90 L 401.78,67.66 L 402.09,65.76 L 402.33,64.90 L 403.35,63.74 L 403.95,63.25 L 405.70,62.83 L 409.14,63.03 L 409.88,63.16 L 410.98,63.30 L 411.48,63.34 L 412.17,63.29 L 412.47,63.24 L 412.81,62.98 L 413.00,62.37 L 413.00,61.97 L 413.57,61.44 L 413.92,61.21 L 414.90,61.03 L 415.41,60.99 Z" fill="rgba(56,149,47,1)"/>
<path d="M 215.68,233.83 L 215.85,247.16 L 212.43,250.95 L 211.48,251.99 L 210.01,253.76 L 209.70,254.14 L 209.27,254.72 L 209.00,255.19 L 209.00,255.25 L 209.24,255.63 L 209.39,255.85 L 209.88,256.49 L 211.99,258.98 L 212.90,260.01 L 214.18,261.98 L 214.74,263.01 L 215.41,265.52 L 215.55,266.21 L 215.73,267.83 L 215.81,268.68 L 215.88,270.67 L 215.91,271.72 L 215.90,274.18 L 215.80,278.50 L 215.50,288.50 L 200.00,289.08 L 200.00,263.00 L 177.26,263.00 L 175.00,263.00 L 173.90,263.00 L 171.89,263.01 L 169.95,263.02 L 166.79,263.05 L 165.32,263.07 L 163.00,263.13 L 161.93,263.17 L 160.32,263.27 L 159.59,263.33 L 158.57,263.49 L 158.12,263.58 L 157.55,263.80 L 157.31,263.92 L 157.07,264.21 L 156.94,264.75 L 156.94,264.87 L 156.93,265.33 L 156.93,265.60 L 156.93,266.32 L 156.93,267.10 L 156.94,269.29 L 156.94,270.47 L 156.96,273.24 L 157.00,277.75 L 157.11,289.00 L 148.70,289.00 L 146.80,288.95 L 145.88,288.91 L 144.31,288.80 L 143.58,288.74 L 142.51,288.59 L 142.05,288.51 L 141.67,288.33 L 141.62,288.29 L 141.53,287.53 L 141.49,287.05 L 141.41,285.49 L 141.37,284.61 L 141.29,282.34 L 141.26,281.12 L 141.20,278.22 L 141.17,276.71 L 141.11,273.28 L 141.09,271.51 L 141.05,267.65 L 141.04,265.67 L 141.01,261.46 L 141.00,254.85 L 141.00,222.04 L 143.25,221.51 L 143.56,221.43 L 144.56,221.28 L 145.11,221.21 L 146.45,221.06 L 151.00,220.74 L 156.50,220.50 L 156.53,222.01 L 156.53,221.99 L 156.43,221.42 L 156.38,221.26 L 156.28,221.00 L 156.23,221.00 L 156.07,221.26 L 155.97,221.67 L 155.92,221.99 L 155.73,223.54 L 155.64,224.67 L 155.49,227.15 L 155.43,228.65 L 155.34,231.78 L 155.32,233.50 L 155.31,236.89 L 155.34,238.38 L 155.42,241.23 L 155.49,242.36 L 155.64,244.39 L 155.75,245.02 L 155.85,245.58 L 155.91,245.75 L 156.03,246.00 L 156.09,246.00 L 156.27,245.74 L 156.39,245.33 L 156.44,245.01 L 156.65,243.46 L 156.73,242.33 L 156.88,239.85 L 156.90,239.36 L 157.06,247.00 L 199.94,247.00 L 200.22,233.75 L 200.50,220.50 L 202.21,220.50 L 201.36,220.92 L 201.11,221.30 L 201.01,221.59 L 200.83,222.24 L 200.76,222.69 L 200.62,223.67 L 200.57,224.32 L 200.48,225.72 L 200.44,226.61 L 200.37,228.50 L 200.33,229.66 L 200.28,232.12 L 200.25,233.59 L 200.21,235.70 L 200.20,236.64 L 200.19,238.44 L 200.19,239.22 L 200.21,240.70 L 200.23,241.32 L 200.27,242.49 L 200.30,242.96 L 200.37,243.83 L 200.41,244.15 L 200.50,244.71 L 200.56,244.88 L 200.68,245.14 L 200.75,245.16 L 200.90,245.13 L 200.98,245.00 L 201.37,243.59 L 201.59,241.93 L 201.68,240.84 L 201.85,238.50 L 201.90,237.16 L 201.98,234.40 L 201.98,232.95 L 202.07,228.48 L 202.20,225.95 L 202.30,224.94 L 202.52,223.10 L 202.66,222.47 L 202.96,221.44 L 203.13,221.27 L 203.56,220.75 L 203.65,220.52 L 203.64,220.50 L 215.50,220.50 M 591.69,235.76 L 592.51,235.77 L 593.86,235.77 L 594.48,235.77 L 595.37,235.78 L 596.12,235.81 L 596.34,235.82 L 597.11,236.23 L 597.54,236.48 L 598.62,237.28 L 599.19,237.72 L 600.45,238.81 L 602.39,240.65 L 607.04,245.37 L 606.77,266.93 L 606.50,288.50 L 580.38,288.77 L 554.26,289.03 L 549.13,283.85 L 544.00,278.66 L 544.00,260.31 L 544.02,257.62 L 544.03,256.33 L 544.06,254.07 L 544.09,253.00 L 544.15,251.16 L 544.18,250.30 L 544.27,248.86 L 544.31,248.18 L 544.43,247.12 L 544.49,246.63 L 544.63,245.92 L 544.70,245.61 L 544.87,245.22 L 545.17,245.00 L 545.49,245.00 L 545.81,244.82 L 545.73,244.40 L 545.65,244.32 L 545.82,243.86 L 545.96,243.59 L 546.51,242.83 L 546.83,242.42 L 547.68,241.46 L 549.23,239.90 L 553.33,236.00 L 573.91,235.84 L 576.74,235.82 L 582.03,235.79 L 583.31,235.78 L 585.68,235.77 L 586.83,235.77 L 588.93,235.77 L 589.93,235.76 M 200.71,265.69 L 200.66,265.83 L 200.56,266.18 L 200.51,266.47 L 200.42,267.12 L 200.39,267.57 L 200.31,268.52 L 200.28,269.11 L 200.22,270.35 L 200.20,271.08 L 200.15,272.60 L 200.14,273.47 L 200.11,275.26 L 200.10,276.25 L 200.09,280.01 L 200.13,281.57 L 200.22,284.49 L 200.29,285.59 L 200.47,287.54 L 200.59,288.12 L 200.71,288.63 L 200.78,288.78 L 200.92,289.00 L 201.00,289.00 L 201.21,288.78 L 201.34,288.43 L 201.39,288.16 L 201.60,286.86 L 201.67,285.93 L 201.80,283.90 L 201.84,282.70 L 201.89,280.22 L 201.89,278.90 L 201.82,273.50 L 201.67,271.16 L 201.50,268.94 L 201.39,268.06 L 201.15,266.47 L 201.00,266.00 L 200.82,265.67 M 497.00,254.25 L 497.00,273.00 L 521.00,273.00 L 521.00,255.51 L 521.05,251.41 L 521.08,249.41 L 521.18,245.85 L 521.21,245.01 L 521.28,243.50 L 521.31,242.78 L 521.38,241.55 L 521.42,240.97 L 521.50,240.07 L 521.62,239.12 L 522.25,236.00 L 536.00,236.00 L 536.00,279.58 L 531.22,284.29 L 526.43,289.00 L 497.74,289.00 L 493.87,285.50 L 492.80,284.54 L 490.90,283.03 L 490.47,282.71 L 489.81,282.28 L 489.19,282.00 L 489.08,282.00 L 488.61,282.28 L 488.35,282.45 L 487.63,283.03 L 485.00,285.50 L 481.61,289.00 L 452.39,289.00 L 448.11,284.76 L 447.26,283.91 L 445.84,282.40 L 445.17,281.67 L 444.10,280.24 L 443.60,279.53 L 442.83,278.02 L 442.48,277.24 L 441.97,275.47 L 441.75,274.54 L 441.46,272.35 L 441.34,271.19 L 441.23,268.40 L 441.20,266.92 L 441.23,263.37 L 441.39,257.00 L 441.44,255.54 L 441.51,252.92 L 441.54,251.66 L 441.61,249.40 L 441.64,248.32 L 441.70,246.40 L 441.73,245.48 L 441.80,243.88 L 441.83,243.11 L 441.92,241.79 L 441.97,241.17 L 442.09,240.10 L 442.23,239.10 L 442.63,237.75 L 442.86,237.17 L 443.53,236.49 L 443.91,236.22 L 444.93,236.00 L 445.50,235.93 L 446.96,235.95 L 449.75,236.00 L 457.00,236.00 L 457.00,273.06 L 469.25,272.78 L 481.50,272.50 L 481.77,254.33 L 482.04,236.16 L 489.52,235.83 L 497.00,235.50 M 434.00,289.00 L 419.06,289.00 L 418.78,262.99 L 418.74,259.42 L 418.70,252.82 L 418.69,251.24 L 418.68,248.31 L 418.68,246.89 L 418.68,244.33 L 418.68,243.11 L 418.70,241.00 L 418.70,240.01 L 418.73,238.43 L 418.74,237.71 L 418.77,236.72 L 418.83,235.99 L 418.88,235.86 L 419.55,235.61 L 419.96,235.49 L 421.25,235.29 L 421.95,235.20 L 423.68,235.08 L 426.58,235.00 L 434.00,235.00 M 282.70,235.66 L 283.63,235.77 L 283.86,235.84 L 284.27,236.27 L 284.46,236.54 L 284.79,237.43 L 284.94,237.94 L 285.20,239.39 L 285.32,240.20 L 285.51,242.30 L 285.60,243.45 L 285.73,246.30 L 285.79,247.83 L 285.88,251.53 L 285.92,253.49 L 285.96,258.13 L 285.97,259.35 L 285.98,261.99 L 285.99,266.25 L 286.00,289.00 L 234.50,289.00 L 222.99,278.50 L 222.99,257.21 L 223.00,235.92 L 230.75,236.21 L 238.50,236.50 L 238.77,254.75 L 239.05,273.00 L 270.00,273.00 L 270.00,236.18 L 276.25,235.79 L 277.97,235.69 L 281.00,235.63 L 281.66,235.63 M 405.64,240.13 L 410.00,244.42 L 410.00,264.17 L 409.99,267.71 L 409.99,269.37 L 409.95,272.05 L 409.93,273.30 L 409.86,275.26 L 409.82,276.17 L 409.69,277.56 L 409.61,278.19 L 409.41,279.15 L 409.29,279.59 L 409.00,280.25 L 407.69,281.83 L 407.05,282.42 L 405.74,283.36 L 405.43,283.56 L 404.90,283.83 L 404.30,284.00 L 404.15,284.00 L 403.76,284.20 L 403.54,284.32 L 403.06,284.73 L 401.59,286.50 L 399.95,289.00 L 357.91,289.00 L 352.97,284.38 L 352.29,283.74 L 351.10,282.51 L 350.53,281.92 L 349.64,280.86 L 349.24,280.36 L 348.75,279.58 L 348.58,278.88 L 348.72,278.64 L 348.72,278.26 L 348.31,278.00 L 348.25,278.00 L 348.15,277.67 L 348.10,277.45 L 348.02,276.72 L 347.98,276.31 L 347.91,275.22 L 347.88,274.63 L 347.83,273.23 L 347.79,271.76 L 347.76,268.06 L 347.82,261.75 L 348.13,245.50 L 357.50,236.06 L 379.39,235.95 L 401.27,235.85 M 340.09,236.09 L 339.50,250.50 L 310.00,251.05 L 309.89,267.78 L 309.88,270.08 L 309.84,274.43 L 309.82,276.53 L 309.78,280.18 L 309.77,281.02 L 309.74,282.52 L 309.73,283.23 L 309.71,284.40 L 309.70,284.95 L 309.67,285.76 L 309.64,286.50 L 309.61,286.94 L 309.34,287.57 L 309.14,287.85 L 308.31,288.21 L 307.80,288.37 L 306.11,288.57 L 305.62,288.62 L 304.43,288.69 L 302.28,288.79 L 301.43,288.83 L 300.01,288.88 L 299.35,288.89 L 298.26,288.90 L 297.76,288.90 L 296.96,288.85 L 296.60,288.82 L 296.03,288.71 L 295.52,288.58 L 294.99,288.06 L 294.77,287.75 L 294.52,286.79 L 294.48,286.64 L 294.41,285.92 L 294.38,285.50 L 294.33,284.31 L 294.30,283.66 L 294.26,282.04 L 294.24,281.19 L 294.21,279.23 L 294.20,278.21 L 294.18,275.95 L 294.18,274.79 L 294.18,272.30 L 294.24,264.26 L 294.50,244.03 L 303.50,235.50 M 363.00,251.00 L 363.00,273.05 L 378.75,272.78 L 394.50,272.50 L 394.82,266.00 L 394.90,264.21 L 394.85,260.16 L 394.83,259.19 L 394.72,257.41 L 394.50,255.25 L 393.88,251.00 M 560.00,251.00 L 560.00,273.00 L 591.00,273.00 L 591.00,251.00 M 591.33,252.21 L 591.28,252.50 L 591.26,252.74 L 591.18,253.94 L 591.16,254.85 L 591.12,256.85 L 591.12,258.07 L 591.12,260.65 L 591.14,262.08 L 591.17,264.46 L 591.18,265.43 L 591.21,267.20 L 591.23,267.87 L 591.26,269.06 L 591.28,269.45 L 591.33,270.10 L 591.36,270.22 L 591.42,270.35 L 591.46,270.22 L 591.55,269.85 L 591.61,269.49 L 591.73,268.65 L 591.80,268.07 L 591.95,266.79 L 592.05,266.00 L 592.39,261.48 L 592.44,258.53 L 592.38,257.22 L 592.20,254.77 L 592.04,253.87 L 591.86,253.05 L 591.76,252.74 L 591.53,252.22 L 591.40,252.08 M 183.16,261.71 L 178.68,261.73 L 176.40,261.76 L 171.87,261.82 L 169.76,261.87 L 165.69,261.98 L 163.99,262.05 L 162.37,262.12 L 161.67,262.16 L 160.37,262.23 L 159.86,262.28 L 158.94,262.36 L 158.64,262.41 L 158.17,262.50 L 158.12,262.54 L 158.21,262.61 L 158.46,262.63 L 159.09,262.69 L 159.60,262.71 L 160.72,262.76 L 161.45,262.78 L 163.02,262.82 L 163.94,262.83 L 165.89,262.86 L 166.99,262.87 L 169.26,262.89 L 170.50,262.89 L 175.71,262.90 L 178.58,262.88 L 182.72,262.84 L 185.29,262.81 L 186.47,262.78 L 188.74,262.73 L 189.74,262.70 L 191.66,262.64 L 192.47,262.60 L 194.00,262.52 L 194.59,262.48 L 195.66,262.40 L 196.01,262.36 L 196.59,262.27 L 196.68,262.22 L 196.71,262.13 L 196.50,262.09 L 195.55,261.96 L 194.59,261.90 L 193.97,261.87 L 192.63,261.82 L 191.84,261.80 L 190.19,261.76 L 189.26,261.75 L 185.34,261.71 M 434.00,229.00 L 426.23,229.00 L 424.46,228.95 L 423.61,228.91 L 422.14,228.80 L 421.47,228.74 L 420.46,228.59 L 420.04,228.51 L 419.67,228.33 L 419.57,228.24 L 419.41,227.54 L 419.33,227.11 L 419.20,225.86 L 419.14,225.18 L 419.05,223.54 L 419.00,220.83 L 419.00,214.00 L 434.00,214.00 Z" fill="rgba(10,10,10,1)"/>
<path d="M 200.10,276.25 L 200.11,275.26 L 200.14,273.47 L 200.15,272.60 L 200.20,271.08 L 200.22,270.35 L 200.28,269.11 L 200.31,268.52 L 200.39,267.57 L 200.42,267.12 L 200.51,266.47 L 200.56,266.18 L 200.66,265.83 L 200.71,265.69 L 200.82,265.67 L 201.00,266.00 L 201.15,266.47 L 201.39,268.06 L 201.50,268.94 L 201.67,271.16 L 201.82,273.50 L 201.89,278.90 L 201.89,280.22 L 201.84,282.70 L 201.80,283.90 L 201.67,285.93 L 201.60,286.86 L 201.39,288.16 L 201.34,288.43 L 201.21,288.78 L 201.00,289.00 L 200.92,289.00 L 200.78,288.78 L 200.71,288.63 L 200.59,288.12 L 200.47,287.54 L 200.29,285.59 L 200.22,284.49 L 200.13,281.57 L 200.09,280.01 M 591.14,262.08 L 591.12,260.65 L 591.12,258.07 L 591.12,256.85 L 591.16,254.85 L 591.18,253.94 L 591.26,252.74 L 591.28,252.50 L 591.33,252.21 L 591.40,252.08 L 591.53,252.22 L 591.76,252.74 L 591.86,253.05 L 592.04,253.87 L 592.20,254.77 L 592.38,257.22 L 592.44,258.53 L 592.39,261.48 L 592.05,266.00 L 591.95,266.79 L 591.80,268.07 L 591.73,268.65 L 591.61,269.49 L 591.55,269.85 L 591.46,270.22 L 591.42,270.35 L 591.36,270.22 L 591.33,270.10 L 591.28,269.45 L 591.26,269.06 L 591.23,267.87 L 591.21,267.20 L 591.18,265.43 L 591.17,264.46 M 158.12,262.54 L 158.17,262.50 L 158.64,262.41 L 158.94,262.36 L 159.86,262.28 L 160.37,262.23 L 161.67,262.16 L 162.37,262.12 L 163.99,262.05 L 165.69,261.98 L 169.76,261.87 L 171.87,261.82 L 176.40,261.76 L 178.68,261.73 L 183.16,261.71 L 185.34,261.71 L 189.26,261.75 L 190.19,261.76 L 191.84,261.80 L 192.63,261.82 L 193.97,261.87 L 194.59,261.90 L 195.55,261.96 L 196.50,262.09 L 196.71,262.13 L 196.68,262.22 L 196.59,262.27 L 196.01,262.36 L 195.66,262.40 L 194.59,262.48 L 194.00,262.52 L 192.47,262.60 L 191.66,262.64 L 189.74,262.70 L 188.74,262.73 L 186.47,262.78 L 185.29,262.81 L 182.72,262.84 L 178.58,262.88 L 175.71,262.90 L 170.50,262.89 L 169.26,262.89 L 166.99,262.87 L 165.89,262.86 L 163.94,262.83 L 163.02,262.82 L 161.45,262.78 L 160.72,262.76 L 159.60,262.71 L 159.09,262.69 L 158.46,262.63 L 158.21,262.61 M 155.32,233.50 L 155.34,231.78 L 155.43,228.65 L 155.49,227.15 L 155.64,224.67 L 155.73,223.54 L 155.92,221.99 L 155.97,221.67 L 156.07,221.26 L 156.23,221.00 L 156.28,221.00 L 156.38,221.26 L 156.43,221.42 L 156.53,221.99 L 156.62,222.62 L 156.77,224.67 L 156.84,225.80 L 156.94,228.65 L 157.00,233.50 L 157.00,235.22 L 156.93,238.35 L 156.88,239.85 L 156.73,242.33 L 156.65,243.46 L 156.44,245.01 L 156.39,245.33 L 156.27,245.74 L 156.09,246.00 L 156.03,246.00 L 155.91,245.75 L 155.85,245.58 L 155.75,245.02 L 155.64,244.39 L 155.49,242.36 L 155.42,241.23 L 155.34,238.38 L 155.31,236.89 M 200.25,233.59 L 200.28,232.12 L 200.33,229.66 L 200.37,228.50 L 200.44,226.61 L 200.48,225.72 L 200.57,224.32 L 200.62,223.67 L 200.76,222.69 L 200.83,222.24 L 201.01,221.59 L 201.11,221.30 L 201.36,220.92 L 202.38,220.41 L 202.73,220.36 L 203.21,220.34 L 203.41,220.35 L 203.60,220.45 L 203.65,220.52 L 203.56,220.75 L 203.13,221.27 L 202.96,221.44 L 202.66,222.47 L 202.52,223.10 L 202.30,224.94 L 202.20,225.95 L 202.07,228.48 L 201.98,232.95 L 201.98,234.40 L 201.90,237.16 L 201.85,238.50 L 201.68,240.84 L 201.59,241.93 L 201.37,243.59 L 200.98,245.00 L 200.90,245.13 L 200.75,245.16 L 200.68,245.14 L 200.56,244.88 L 200.50,244.71 L 200.41,244.15 L 200.37,243.83 L 200.30,242.96 L 200.27,242.49 L 200.23,241.32 L 200.21,240.70 L 200.19,239.22 L 200.19,238.44 L 200.20,236.64 L 200.21,235.70 Z" fill="rgba(4,4,4,1)"/>
</g>
</svg>